<svg xmlns="http://www.w3.org/2000/svg"
     version="1.1" xmlns:xlink="http://www.w3.org/1999/xlink"
     xmlns:svgjs="http://svgjs.dev/svgjs"
     viewBox="0 0 9 7">
  <g transform="matrix(1,0,0,1,0.7054820458167539,6.11644348579867)">
    <g><path d=" M 0.075439453125 0.5625000000000002 Q 0.075439453125
     0.4848632812500002 0.0955810546875 0.4127197265625002 Q 0.11572265625
     0.3405761718750002 0.154541015625 0.2783203125000002 Q 0.193359375
     0.21606445312500022 0.249755859375 0.16479492187500022 Q 0.30615234375
     0.11352539062500022 0.3782958984375 0.07690429687500022 Q 0.450439453125
      0.04028320312500022 0.53759765625 0.020141601562500222 Q 0.624755859375
      2.220446049250313e-16 0.72509765625 2.220446049250313e-16 Q 0.78955078125
       2.220446049250313e-16 0.8485107421875 0.008056640625000222 Q 0.907470703125
        0.016113281250000222 0.95947265625 0.030395507812500222 Q 1.011474609375
        0.04467773437500022 1.0557861328125 0.06335449218750022 Q 1.10009765625
        0.08203125000000022 1.135986328125 0.10253906250000022 L 1.072998046875 0.22558593750000022 Q 1.031982421875 0.20581054687500022 0.9796142578125 0.19226074218750022
        Q 0.92724609375 0.17871093750000022 0.870849609375 0.17871093750000022 Q 0.79541015625 0.17871093750000022 0.73095703125 0.20581054687500022 Q 0.66650390625 0.23291015625000022 0.61962890625 0.2827148437500002 Q 0.57275390625 0.3325195312500002 0.5460205078125 0.4031982421875002 Q 0.519287109375 0.4738769531250002 0.519287109375 0.5617675781250002 Q 0.519287109375 0.6489257812500002 0.545654296875 0.7196044921875002
         Q 0.572021484375 0.7902832031250002 0.6185302734375 0.8404541015625002 Q 0.6650390625 0.8906250000000002 0.7291259765625 0.9180908203125002 Q 0.793212890625 0.9455566406250002 0.867919921875 0.9455566406250002 L 0.867919921875 0.5771484375000002 L 1.294921875 0.5771484375000002 L 1.21875 0.7155761718750002 L 1.21875 1.0114746093750002 L 1.219482421875 1.0129394531250002 Q 1.18359375 1.0341796875000002 1.130859375 1.0539550781250002
         Q 1.078125 1.0737304687500002 1.0133056640625 1.0894775390625002 Q 0.948486328125 1.1052246093750002 0.875244140625 1.1147460937500002 Q 0.802001953125
         1.1242675781250002 0.72509765625 1.1242675781250002 Q 0.574951171875 1.1242675781250002 0.4544677734375 1.0799560546875002 Q 0.333984375 1.0356445312500002 0.249755859375 0.9591064453125002 Q 0.16552734375 0.8825683593750002 0.1204833984375 0.7803955078125002 Q 0.075439453125 0.6782226562500002 0.075439453125 0.5625000000000002 M 1.465576171875 0.017578125000000222 L 2.385498046875 0.017578125000000222 L 2.385498046875 0.18530273437500022 L 1.8896484375
         0.18530273437500022 L 1.888916015625 0.4790039062500002 L 2.268310546875
         0.4790039062500002 L 2.268310546875 0.6467285156250002 L 1.888916015625
         0.6467285156250002 L 1.888916015625 0.9382324218750002
          L 2.385498046875 0.9382324218750002 L 2.385498046875 1.1059570312500002
           L 1.465576171875 1.1059570312500002 L 1.465576171875 0.017578125000000222
            M 2.546630859375 0.5595703125000002 Q 2.546630859375
            0.4357910156250002 2.586181640625 0.3328857421875002 Q 2.625732421875
            0.22998046875000022 2.7041015625 0.15600585937500022 Q 2.782470703125
            0.08203125000000022 2.899658203125 0.04101562500000022 Q 3.016845703125
             2.220446049250313e-16 3.172119140625 2.220446049250313e-16 Q 3.327392578125
             2.220446049250313e-16 3.444580078125 0.04101562500000022 Q 3.561767578125
              0.08203125000000022 3.64013671875 0.15600585937500022 Q 3.718505859375 0.22998046875000022 3.758056640625 0.3328857421875002 Q 3.797607421875 0.4357910156250002 3.797607421875 0.5595703125000002 Q 3.797607421875 0.6848144531250002 3.758056640625 0.7888183593750002 Q 3.718505859375 0.8928222656250002 3.64013671875 0.9667968750000002 Q 3.561767578125
          1.0407714843750002 3.444580078125 1.0817871093750002 Q 3.327392578125
          1.1228027343750002 3.172119140625 1.1228027343750002 Q 3.016845703125
           1.1228027343750002 2.899658203125 1.0817871093750002 Q 2.782470703125 1.0407714843750002 2.7041015625 0.9667968750000002 Q 2.625732421875 0.8928222656250002 2.586181640625 0.7888183593750002 Q 2.546630859375 0.6848144531250002 2.546630859375 0.5595703125000002 M 3.172119140625 0.9711914062500002 Q 3.216064453125 0.9711914062500002 3.249755859375 0.9558105468750002 Q 3.283447265625 0.9404296875000002 3.30615234375 0.8957519531250002 Q 3.328857421875 0.8510742187500002 3.340576171875 0.7705078125000002 Q 3.352294921875 0.6899414062500002 3.352294921875 0.5595703125000002 Q 3.352294921875 0.4306640625000002 3.340576171875 0.3508300781250002 Q 3.328857421875 0.2709960937500002 3.30615234375 0.22705078125000022 Q 3.283447265625 0.18310546875000022 3.249755859375 0.16772460937500022 Q 3.216064453125 0.15234375000000022 3.172119140625 0.15234375000000022 Q 3.128173828125 0.15234375000000022 3.0941162109375 0.16772460937500022 Q 3.06005859375 0.18310546875000022 3.037353515625 0.22705078125000022 Q 3.0146484375 0.2709960937500002 3.0029296875 0.3508300781250002 Q 2.9912109375 0.4306640625000002 2.9912109375 0.5595703125000002 Q 2.9912109375 0.6899414062500002 3.0029296875 0.7705078125000002 Q 3.0146484375 0.8510742187500002 3.037353515625 0.8957519531250002 Q 3.06005859375 0.9404296875000002 3.0941162109375 0.9558105468750002 Q 3.128173828125 0.9711914062500002 3.172119140625 0.9711914062500002 M 4.0341796875 0.8642578125000002 Q 4.11181640625 0.9038085937500002 4.19677734375 0.9235839843750002 Q 4.28173828125 0.9433593750000002 4.35498046875 0.9433593750000002 Q 4.439208984375 0.9433593750000002 4.4783935546875 0.9191894531250002 Q 4.517578125 0.8950195312500002 4.517578125 0.8532714843750002 Q 4.517578125 0.8400878906250002 4.5128173828125 0.8261718750000002 Q 4.508056640625 0.8122558593750002 4.4945068359375 0.7987060546875002 Q 4.48095703125 0.7851562500000002 4.4571533203125 0.7716064453125002 Q 4.433349609375 0.7580566406250002 4.395263671875 0.7448730468750002
          L 4.26416015625 0.7001953125000002 Q 4.12353515625 0.6518554687500002 4.052490234375 0.5694580078125002 Q 3.9814453125 0.4870605468750002 3.9814453125 0.3735351562500002 Q 3.9814453125 0.3002929687500002 4.01220703125 0.23254394531250022 Q 4.04296875 0.16479492187500022 4.105224609375 0.11315917968750022 Q 4.16748046875 0.06152343750000022 4.2623291015625 0.030761718750000222 Q 4.357177734375 2.220446049250313e-16 4.484619140625 2.220446049250313e-16 Q 4.547607421875 2.220446049250313e-16 4.60546875 0.007324218750000222 Q 4.663330078125 0.014648437500000222 4.7142333984375 0.026367187500000222 Q 4.76513671875 0.03808593750000022 4.8076171875 0.05310058593750022 Q 4.85009765625 0.06811523437500022 4.88232421875 0.08276367187500022 L 4.80322265625 0.22558593750000022 Q 4.77978515625 0.21093750000000022 4.7537841796875 0.19995117187500022 Q 4.727783203125 0.18896484375000022 4.7017822265625 0.18164062500000022 Q 4.67578125 0.17431640625000022 4.65087890625 0.17065429687500022 Q 4.6259765625 0.16699218750000022 4.60546875 0.16699218750000022 Q 4.5703125 0.16699218750000022 4.5439453125 0.17614746093750022 Q 4.517578125 0.18530273437500022 4.4996337890625 0.20031738281250022 Q 4.481689453125 0.21533203125000022 4.4725341796875 0.23400878906250022 Q 4.46337890625 0.2526855468750002 4.46337890625 0.2709960937500002 Q 4.46337890625 0.2871093750000002 4.4710693359375 0.3021240234375002 Q 4.478759765625 0.3171386718750002 4.4974365234375 0.3314208984375002 Q 4.51611328125 0.3457031250000002 4.5465087890625 0.3599853515625002 Q 4.576904296875 0.3742675781250002 4.622314453125 0.3896484375000002 L 4.710205078125 0.4189453125000002 Q 4.85302734375 0.4665527343750002 4.928466796875 0.5500488281250002 Q 5.00390625 0.6335449218750002 5.00390625 0.7521972656250002 Q 5.00390625 0.8327636718750002 4.9676513671875 0.9008789062500002 Q 4.931396484375 0.9689941406250002 4.859619140625 1.0184326171875002 Q 4.787841796875 1.0678710937500002 4.6812744140625 1.0953369140625002 Q 4.57470703125 1.1228027343750002 4.43408203125 1.1228027343750002 Q 4.36669921875 1.1228027343750002 4.3040771484375 1.1158447265625002 Q 4.241455078125 1.1088867187500002 4.1817626953125 1.0949707031250002 Q 4.1220703125 1.0810546875000002
          4.064208984375 1.0598144531250002 Q 4.00634765625 1.0385742187500002 3.948486328125 1.0100097656250002 L 4.0341796875 0.8642578125000002 M 5.214111328125 0.017578125000000222 L 6.134033203125 0.017578125000000222 L 6.134033203125 0.18530273437500022 L 5.63818359375 0.18530273437500022 L 5.637451171875 0.4790039062500002 L 6.016845703125 0.4790039062500002 L 6.016845703125 0.6467285156250002 L 5.637451171875 0.6467285156250002 L 5.637451171875 0.9382324218750002 L 6.134033203125 0.9382324218750002 L 6.134033203125 1.1059570312500002 L 5.214111328125 1.1059570312500002 L 5.214111328125 0.017578125000000222 M 6.35888671875 0.017578125000000222 L 6.6240234375 0.017578125000000222 L 7.314697265625 0.5976562500000002 L 7.3154296875 0.017578125000000222 L 7.4765625 0.017578125000000222 L 7.4765625 1.1059570312500002 L 7.21142578125 1.1059570312500002 L 6.52001953125 0.5280761718750002
    L 6.52001953125 1.1059570312500002 L 6.35888671875 1.1059570312500002 L 6.35888671875 0.017578125000000222" fill="#431a10" fill-rule="nonzero">

    </path></g>
    <g></g>
    <g clip-path="url(#SvgjsClipPath1005)">
    <g clip-path="url(#SvgjsClipPath10005e561b20-4b3c-4e1a-9ae2-66f61f99549f)">
      <path d=" M 4.878471282012875 -0.25 L 3.9084252182527264 -0.25 L 4.308420916064133 -2.937541715379745 L 2.854199268936224 -2.937541715379745 L 2.7818836625522407 -2.4539310976868585 L 2.2971431135096045 -2.4539310976868585 L 2.481321923518811 -3.6906409599879444 L 5.390895149124379 -3.6906409599879444 L 4.878471282012875 -0.25 Z" fill="#3e7742" transform="matrix(1,0,0,1,0,0)" fill-rule="evenodd">

      </path></g><g clip-path="url(#SvgjsClipPath10005e561b20-4b3c-4e1a-9ae2-66f61f99549f)">
      <path d=" M 0.766086134598713 -1.9703204799939722 L 3.675659360204281 -1.9703204799939722 L 3.4197299094859663 -0.25 L 2.4496838457258185 -0.25 L 2.59375009281891 -1.2177862010606484 L 1.1389634800161255 -1.2177862010606484 L 0.9948972329230343 -0.25 L 0.5101566838803979 -0.25 L 0.766086134598713 -1.9703204799939722 Z" fill="#3e7742" transform="matrix(1,0,0,1,0,0)" fill-rule="evenodd">

      </path></g><g clip-path="url(#SvgjsClipPath10005e561b20-4b3c-4e1a-9ae2-66f61f99549f)">
      <path d=" M 4.195992746764034 -5.410961439981916 L 7.105565972369602 -5.410961439981916 L 6.337777620214658 -0.25 L 5.36773155645451 -0.25 L 6.023656704984232 -4.657862195373718 L 4.568870092181447 -4.657862195373718 L 4.497119451472339 -4.174251577680831 L 4.0118139367548284 -4.174251577680831 L 4.195992746764034 -5.410961439981916 Z" fill="#3e7742" transform="matrix(1,0,0,1,0,0)" fill-rule="evenodd">

    </path></g></g></g><defs><clipPath id="SvgjsClipPath1005">
  <path d=" M 0.5101566838803979 -5.410961439981916 h 6.595409288489204 v 5.160961439981916 h -6.595409288489204 Z">

  </path></clipPath><clipPath id="SvgjsClipPath10005e561b20-4b3c-4e1a-9ae2-66f61f99549f">
  <path d=" M 0.5101566838803979 -5.410961439981916 L 7.105565972369602 -5.410961439981916 L 7.105565972369602 -0.25 L 0.5101566838803979 -0.25 Z">

</path></clipPath>
</defs></svg>
