<?xml version="1.0" standalone="no"?>
<!DOCTYPE svg PUBLIC "-//W3C//DTD SVG 20010904//EN"
 "http://www.w3.org/TR/2001/REC-SVG-20010904/DTD/svg10.dtd">
<svg version="1.0" xmlns="http://www.w3.org/2000/svg"
 width="79.000000pt" height="77.000000pt" viewBox="0 0 79.000000 77.000000"
 preserveAspectRatio="xMidYMid meet">
<metadata>
Created by potrace 1.10, written by Peter Selinger 2001-2011
</metadata>
<g transform="translate(0.000000,77.000000) scale(0.100000,-0.100000)"
fill="#fff" stroke="none">
<path d="M367 734 c-4 -4 -7 -20 -7 -36 0 -22 5 -28 21 -28 17 0 20 5 17 32
-3 31 -17 45 -31 32z"/>
<path d="M420 700 c0 -21 5 -30 16 -30 13 0 14 3 5 14 -9 10 -8 15 4 20 22 8
19 26 -5 26 -16 0 -20 -7 -20 -30z"/>
<path d="M277 714 c-3 -3 -1 -17 5 -30 12 -25 32 -32 43 -14 3 6 1 10 -4 10
-6 0 -10 3 -10 8 5 28 -16 44 -34 26z"/>
<path d="M477 707 c-3 -8 0 -20 6 -26 9 -9 7 -11 -8 -5 -19 7 -19 6 -3 -12 20
-21 35 -12 40 26 3 27 -25 41 -35 17z"/>
<path d="M225 680 c-4 -6 -1 -17 5 -25 12 -15 6 -35 -11 -35 -6 0 -7 5 -4 10
3 6 1 10 -5 10 -6 0 -8 5 -5 10 3 6 2 10 -4 10 -18 0 -22 -19 -9 -40 17 -26
31 -25 54 4 10 14 21 23 26 20 12 -8 9 9 -6 29 -15 19 -32 22 -41 7z"/>
<path d="M545 660 c-18 -19 -17 -21 5 -40 22 -19 24 -19 42 -4 23 22 23 38 -1
31 -14 -3 -17 0 -14 14 7 25 -9 24 -32 -1z"/>
<path d="M152 618 c-6 -6 -12 -16 -12 -22 0 -5 3 -6 7 -3 3 4 15 0 25 -10 10
-9 21 -13 26 -9 4 4 0 13 -9 19 -9 7 -18 18 -20 25 -3 10 -7 10 -17 0z"/>
<path d="M597 603 c-17 -21 -2 -43 23 -35 12 4 13 2 3 -10 -18 -21 -6 -29 23
-16 27 12 34 34 8 24 -14 -5 -15 -4 -4 9 17 21 7 29 -18 16 -32 -17 -39 -12
-13 9 15 13 18 20 9 20 -8 0 -22 -8 -31 -17z"/>
<path d="M115 570 c-10 -16 6 -32 25 -27 14 3 17 0 13 -12 -5 -14 -3 -14 13 2
16 15 17 19 4 27 -9 5 -19 5 -27 -2 -10 -8 -12 -7 -7 6 7 17 -11 23 -21 6z"/>
<path d="M300 560 c-14 -11 -30 -20 -36 -20 -7 0 -28 -20 -48 -45 -36 -43 -36
-45 -20 -70 l17 -26 27 33 28 33 41 -42 41 -42 -60 -57 -61 -58 21 -20 20 -20
60 59 61 60 58 -62 c58 -62 58 -63 76 -43 18 20 18 22 -39 79 l-58 59 38 36
c22 19 44 36 50 36 5 0 26 -11 44 -25 19 -14 36 -21 38 -16 2 6 -10 34 -25 63
-22 40 -41 59 -76 78 -44 23 -48 23 -63 8 -16 -15 -15 -18 12 -41 l29 -25 -40
-36 c-22 -19 -42 -35 -45 -36 -3 0 -23 18 -44 39 l-39 40 38 22 37 22 -23 18
c-30 23 -29 23 -59 -1z m113 -180 c-3 -11 -14 -20 -24 -20 -12 0 -19 7 -19 20
0 14 7 20 24 20 19 0 23 -4 19 -20z"/>
<path d="M653 527 c-24 -10 -30 -31 -13 -42 5 -3 7 -12 4 -19 -7 -19 10 -28
41 -20 28 7 29 27 2 32 -11 2 -17 -3 -18 -15 0 -16 -1 -16 -9 2 -14 33 -11 44
10 40 12 -2 20 2 20 10 0 20 -12 24 -37 12z"/>
<path d="M88 493 c10 -4 10 -8 1 -19 -14 -17 -13 -19 26 -28 29 -7 29 -7 10 8
-18 14 -18 15 -2 16 25 0 21 17 -5 24 -27 7 -48 7 -30 -1z"/>
<path d="M70 396 c0 -8 8 -17 18 -19 16 -4 16 -5 0 -6 -32 -2 -21 -31 12 -31
30 0 36 16 17 47 -4 6 -1 14 5 16 7 3 -2 6 -19 6 -22 1 -33 -4 -33 -13z"/>
<path d="M651 378 c0 -13 3 -18 5 -11 4 8 13 9 30 3 20 -8 24 -7 24 10 0 16
-7 20 -30 20 -25 0 -30 -4 -29 -22z"/>
<path d="M640 340 c0 -11 51 -31 61 -25 19 12 8 23 -26 27 -19 2 -35 1 -35 -2z"/>
<path d="M627 283 c-4 -3 -7 -14 -7 -24 0 -9 -7 -19 -15 -23 -8 -3 -15 -13
-15 -22 0 -10 3 -14 7 -11 3 4 12 -1 19 -11 10 -13 15 -14 25 -5 10 10 9 17
-6 34 -19 20 -19 20 8 14 34 -9 49 19 21 40 -22 16 -28 18 -37 8z"/>
<path d="M150 252 c0 -7 -4 -10 -10 -7 -5 3 -10 1 -10 -5 0 -6 -4 -8 -10 -5
-5 3 -10 -1 -10 -9 0 -23 17 -28 45 -14 23 13 24 15 10 33 -9 12 -14 15 -15 7z"/>
<path d="M155 194 c-13 -9 -16 -17 -9 -22 6 -4 13 -15 17 -24 8 -22 30 -23 47
-3 15 18 6 45 -15 45 -9 0 -13 5 -10 10 9 15 -7 12 -30 -6z"/>
<path d="M534 165 c-10 -14 -25 -25 -33 -25 -10 0 -8 -7 9 -25 27 -28 44 -23
36 10 -8 31 13 44 30 20 8 -10 17 -15 21 -11 4 3 -4 18 -18 32 l-25 25 -20
-26z"/>
<path d="M220 135 c-7 -8 -10 -22 -6 -30 7 -19 35 -19 42 0 4 8 12 15 20 15
11 0 13 -7 8 -27 -4 -19 -3 -25 4 -18 16 16 25 55 13 56 -26 3 -30 4 -37 12
-12 11 -31 8 -44 -8z"/>
<path d="M320 94 c-12 -31 -1 -50 25 -40 11 4 15 15 13 33 -4 36 -26 41 -38 7z"/>
<path d="M427 113 c-14 -13 -6 -25 13 -20 11 3 20 1 20 -4 0 -5 -7 -9 -15 -9
-8 0 -15 -4 -15 -10 0 -14 38 -12 43 3 10 28 -26 60 -46 40z"/>
<path d="M385 100 c11 -5 15 -9 10 -9 -17 -1 -16 -41 1 -41 9 0 14 11 14 30 0
25 -4 30 -22 29 -22 0 -22 -1 -3 -9z"/>
</g>
</svg>
