<svg version="1.1" id="Layer_1" xmlns="http://www.w3.org/2000/svg" xmlns:xlink="http://www.w3.org/1999/xlink" x="0px" y="0px"
	 width="100%" viewBox="0 0 1080 1080" enable-background="new 0 0 1080 1080" xml:space="preserve">
<path fill="#FFF" opacity="0.000000" stroke="none"
	d="
M610.000000,1081.000000
	C406.690063,1081.000000 203.880142,1081.000000 1.035109,1081.000000
	C1.035109,721.064941 1.035109,361.129883 1.035109,1.097422
	C360.893494,1.097422 720.786987,1.097422 1080.840332,1.097422
	C1080.840332,360.999939 1080.840332,720.999939 1080.840332,1081.000000
	C924.129456,1081.000000 767.314758,1081.000000 610.000000,1081.000000
M712.136108,626.821899
	C712.762817,626.548279 713.389526,626.274719 714.134644,625.239929
	C712.195129,620.201538 710.217834,615.177246 708.326843,610.120789
	C706.452576,605.109070 709.170288,601.567383 712.217102,598.080505
	C715.081909,594.802002 718.214966,596.257629 721.351624,597.339172
	C724.300598,598.356018 727.226746,599.439270 730.377808,600.570496
	C731.256897,598.902649 732.013245,597.467712 733.174438,595.501770
	C733.827576,594.126343 734.480713,592.750916 735.697571,590.993042
	C736.683655,589.321167 737.669800,587.649292 738.368713,586.464294
	C735.747192,583.361755 731.981506,580.857666 731.757996,578.069519
	C731.551025,575.487915 735.391907,572.734558 736.901489,569.776794
	C737.406982,568.786438 736.681213,566.190674 735.730286,565.602234
	C731.507324,562.989136 727.086792,560.634521 722.533142,558.657532
	C721.329468,558.135071 719.396606,559.292358 717.229370,560.070679
	C710.133057,571.687561 703.036743,583.304443 695.728088,594.012817
	C695.996216,555.897705 696.293274,517.782776 696.523315,479.667450
	C696.707153,449.205078 696.824829,418.742310 696.944275,388.279602
	C697.127686,341.503693 697.287476,294.727722 698.226929,248.440567
	C791.648193,289.740601 847.265869,361.201080 867.777100,461.363556
	C892.040771,457.321289 916.345337,453.272217 941.950867,449.006378
	C937.008362,430.557526 933.176697,412.660675 927.420715,395.405762
	C905.034241,328.296875 866.228943,272.441223 810.437439,228.741730
	C746.578186,178.723038 673.913025,153.322067 592.832825,152.412994
	C559.225586,152.036179 526.154724,156.587296 493.840729,165.948425
	C418.414520,187.798874 356.221252,229.374649 308.460693,291.833160
	C268.683319,343.851685 244.971909,402.500061 237.660614,467.728485
	C233.660995,503.411560 235.176086,538.814575 240.814697,574.017212
	C240.240448,574.002808 239.666183,573.988403 238.505692,573.644958
	C196.600449,532.254517 154.695221,490.864044 112.701660,449.386353
	C112.701660,533.378845 112.701660,618.008789 112.701660,702.887390
	C134.837341,702.887390 157.229401,702.887390 180.473846,702.887390
	C180.473846,672.800171 180.473846,642.981873 180.473846,613.163574
	C180.971695,612.952393 181.469543,612.741211 181.967392,612.530029
	C211.632874,642.004150 241.298340,671.478210 272.448822,702.427795
	C276.398956,697.782959 280.607788,692.833984 285.302429,688.030579
	C285.471252,688.037964 285.640076,688.045288 285.706787,688.803528
	C286.578369,690.577087 287.307648,692.438660 288.342529,694.111145
	C309.371826,728.097839 335.172791,757.895630 366.323364,783.019714
	C424.493958,829.936584 490.885071,856.206909 565.332214,861.897705
	C598.703369,864.448669 631.893005,862.088318 664.548035,854.802673
	C748.479919,836.076721 817.591919,793.390869 870.840210,725.612305
	C878.371460,716.025940 885.079041,705.792419 891.374329,696.970398
	C887.250122,695.004517 883.694153,693.516907 880.353149,691.645569
	C878.049866,690.355469 876.197754,688.251099 873.881592,686.994141
	C850.939575,674.543518 828.329041,661.393738 804.845459,650.055786
	C784.137756,640.058105 763.262756,630.560608 744.513489,617.104553
	C742.276245,615.498901 739.570923,612.586792 739.547852,610.255859
	C739.497131,605.148071 736.715576,603.810608 732.527344,602.616760
	C727.525269,610.906677 722.577759,619.106140 717.339355,627.787720
	C748.120361,646.415222 778.497437,664.798218 809.022034,683.270508
	C807.821411,684.873840 806.986206,686.119934 806.022461,687.257019
	C781.405518,716.303101 752.634521,740.308594 718.305298,756.937134
	C702.359375,764.661011 685.445740,770.387268 668.231567,776.942139
	C665.101074,774.444336 662.227173,774.158447 659.651489,777.781433
	C659.010925,778.682373 658.043457,779.350891 656.594543,780.062256
	C656.380798,780.364197 656.167053,780.666138 655.997620,780.970337
	C655.997620,780.970337 655.967529,780.932312 655.134277,780.699402
	C653.975891,780.824280 652.791504,780.834473 651.662964,781.090759
	C620.546265,788.156738 589.166382,789.692566 557.466980,786.019592
	C527.983643,782.603455 499.743958,774.795715 472.902069,762.219910
	C415.864410,735.496948 372.445312,694.299011 342.566681,638.819458
	C341.746735,637.296936 339.980713,636.283997 338.999390,634.423889
	C354.434143,619.237976 369.871277,604.054504 385.303162,588.865601
	C427.918579,546.921387 470.546295,504.989594 513.141235,463.024536
	C548.263611,428.421661 583.341492,393.773621 618.454041,359.160767
	C621.589417,356.069977 624.835022,353.091003 628.848267,349.283234
	C628.213135,468.856903 627.584106,587.274719 626.954773,705.744995
	C646.728088,705.744995 665.615906,705.744995 685.294678,705.744995
	C680.631958,697.440063 676.956177,689.156128 671.713928,682.023499
	C665.969116,674.206970 666.672424,665.995789 667.081604,657.238647
	C673.272339,656.515930 679.197205,655.897217 685.094666,655.080200
	C686.426025,654.895691 688.179871,654.381409 688.858765,653.406189
	C693.760742,646.363586 697.229492,638.829224 695.387146,629.450684
	C693.656250,630.921265 692.078613,632.261536 691.119568,633.076355
	C688.887817,631.161865 686.867615,629.428833 684.402893,627.314453
	C687.837524,623.049927 688.723755,617.928040 684.752380,612.649597
	C684.393860,612.173157 684.445068,610.955994 684.809448,610.434753
	C688.470520,605.198059 692.236938,600.034973 696.266174,595.748108
	C694.175537,608.399780 702.806519,615.867126 709.972229,624.020020
	C709.972229,624.020020 709.945740,624.034485 709.985596,624.650574
	C710.565063,625.184448 711.144531,625.718262 711.803711,626.201843
	C711.803711,626.201843 711.792480,626.295410 712.136108,626.821899
M574.500000,706.000244
	C586.921265,706.000244 599.342468,706.000244 611.747803,706.000244
	C611.747803,599.805847 611.747803,494.285919 611.747803,390.176605
	C528.670532,473.232910 445.015747,556.866577 361.991882,639.869446
	C375.454895,653.456848 389.465973,667.597351 403.985260,682.250793
	C452.685150,633.540405 501.619232,584.595825 551.326416,534.877991
	C551.326416,592.369202 551.326416,649.038879 551.326416,706.000244
	C559.197021,706.000244 566.348511,706.000244 574.500000,706.000244
M873.662231,655.859192
	C880.753418,659.136169 887.682434,662.855347 894.992126,665.536682
	C899.969971,667.362671 903.464844,669.583557 903.242554,676.839111
	C907.211792,670.276306 910.353516,665.081726 913.824158,659.343201
	C860.996338,627.408447 808.574036,595.718811 755.883850,563.867249
	C751.016968,571.952332 746.413818,579.599182 741.772217,587.309937
	C744.911072,589.944946 747.417847,591.868469 751.502441,588.879517
	C753.135864,587.684265 756.868958,588.015198 758.978271,589.034180
	C771.537842,595.101624 784.297363,600.911316 796.250427,608.046143
	C822.077087,623.462097 847.456360,639.627441 873.662231,655.859192
M731.997192,559.463318
	C734.325378,560.674622 736.653503,561.885925 739.343323,563.285461
	C741.009705,560.608093 742.530334,558.164917 744.514282,554.977295
	C738.790710,551.979309 733.608887,549.265015 728.200378,546.432007
	C726.286438,549.589783 724.857483,551.947327 723.190308,554.697937
	C726.152527,556.294800 728.749939,557.695007 731.997192,559.463318
z"/>
<path fill="#94322D" opacity="1.000000" stroke="none"
	d="
M695.973633,594.851135
	C692.236938,600.034973 688.470520,605.198059 684.809448,610.434753
	C684.445068,610.955994 684.393860,612.173157 684.752380,612.649597
	C688.723755,617.928040 687.837524,623.049927 684.402893,627.314453
	C686.867615,629.428833 688.887817,631.161865 691.119568,633.076355
	C692.078613,632.261536 693.656250,630.921265 695.387146,629.450684
	C697.229492,638.829224 693.760742,646.363586 688.858765,653.406189
	C688.179871,654.381409 686.426025,654.895691 685.094666,655.080200
	C679.197205,655.897217 673.272339,656.515930 667.081604,657.238647
	C666.672424,665.995789 665.969116,674.206970 671.713928,682.023499
	C676.956177,689.156128 680.631958,697.440063 685.294678,705.744995
	C665.615906,705.744995 646.728088,705.744995 626.954773,705.744995
	C627.584106,587.274719 628.213135,468.856903 628.848267,349.283234
	C624.835022,353.091003 621.589417,356.069977 618.454041,359.160767
	C583.341492,393.773621 548.263611,428.421661 513.141235,463.024536
	C470.546295,504.989594 427.918579,546.921387 385.303162,588.865601
	C369.871277,604.054504 354.434143,619.237976 338.669312,634.726807
	C338.128387,635.135132 338.017456,635.305603 337.741821,635.781982
	C335.501007,638.057434 333.524780,640.091980 331.206787,642.216553
	C327.601532,645.732422 324.338043,649.158264 320.718140,652.671997
	C320.217438,653.158752 320.073120,653.557678 319.964844,653.972107
	C320.000854,653.987671 319.950775,653.927246 319.600281,653.831421
	C319.142212,654.140686 319.034668,654.545715 318.961243,654.973022
	C318.995331,654.995178 318.950867,654.927063 318.599915,654.830505
	C318.141663,655.139587 318.034302,655.545166 317.960999,655.973145
	C317.994995,655.995483 317.950714,655.927246 317.598236,655.833130
	C317.139099,656.145630 317.032471,656.552246 316.958496,656.976624
	C316.991150,656.994446 316.962006,656.925964 316.609253,656.839966
	C316.146088,657.159790 316.035614,657.565491 315.958374,657.981567
	C315.991577,657.991943 315.971283,657.925354 315.617554,657.836548
	C315.151001,658.155640 315.038147,658.563477 314.958496,658.981567
	C314.991730,658.991699 314.971222,658.925354 314.617615,658.836548
	C314.151123,659.155518 314.038269,659.563416 313.958588,659.981445
	C313.991791,659.991699 313.971039,659.925354 313.617615,659.836670
	C313.151306,660.155640 313.038391,660.563354 312.958679,660.981323
	C312.991852,660.991699 312.970734,660.925415 312.617523,660.836975
	C312.151367,661.155884 312.038452,661.563293 311.958679,661.981201
	C311.991852,661.991760 311.970398,661.925537 311.617310,661.837280
	C311.151337,662.156189 311.038452,662.563293 310.958679,662.981079
	C310.991821,662.991821 310.970276,662.925598 310.617188,662.837585
	C310.151276,663.156494 310.038422,663.563477 309.958679,663.981140
	C309.991821,663.991882 309.970398,663.925598 309.617188,663.837585
	C309.151123,664.156616 309.038330,664.563599 308.958679,664.981262
	C308.991791,664.991882 308.970703,664.925537 308.617249,664.837280
	C308.151001,665.156372 308.038208,665.563599 307.958618,665.981323
	C307.991760,665.991821 307.970947,665.925476 307.617310,665.837036
	C307.150909,666.156067 307.038147,666.563538 306.958557,666.981445
	C306.991760,666.991760 306.970978,666.925415 306.617279,666.836609
	C306.150848,667.155518 306.038086,667.563232 305.958527,667.981323
	C305.991699,667.991760 305.970825,667.925415 305.611267,667.835815
	C305.142334,668.153015 305.032928,668.559875 304.957733,668.976440
	C304.991943,668.986084 304.976074,668.916748 304.663635,668.721802
	C303.217834,669.674683 302.084503,670.822388 300.975311,671.985107
	C300.999451,672.000000 300.983398,671.945557 300.713928,672.002502
	C300.278076,672.369446 300.111664,672.679504 299.973389,672.995544
	C300.001495,673.001587 299.990692,672.945068 299.719299,673.000610
	C299.280273,673.367676 299.112671,673.679138 298.973389,673.996094
	C299.001709,674.001648 298.990692,673.945068 298.719208,674.000488
	C298.280182,674.367493 298.112640,674.679077 297.973389,674.996094
	C298.001709,675.001648 297.990692,674.945068 297.719116,675.000366
	C297.280060,675.367249 297.112579,675.678894 296.973389,675.996216
	C297.001709,676.001770 296.990692,675.945129 296.718994,676.000183
	C296.279877,676.367004 296.112518,676.678833 295.973450,676.996216
	C296.001709,677.001770 295.990692,676.945129 295.718811,677.000000
	C295.279663,677.366760 295.112396,677.678650 294.973419,677.996216
	C295.001709,678.001770 294.990692,677.945129 294.718750,677.999878
	C294.279572,678.366577 294.112335,678.678589 293.973419,678.996216
	C294.001709,679.001770 293.990692,678.945129 293.718811,678.999878
	C293.279633,679.366638 293.112366,679.678589 292.973389,679.996216
	C293.001709,680.001770 292.990692,679.945129 292.718933,680.000122
	C292.279846,680.366943 292.112488,680.678772 291.973450,680.996216
	C292.001770,681.001770 291.990723,680.945129 291.719177,681.000366
	C291.280151,681.367310 291.112701,681.679016 290.973511,681.996216
	C291.001801,682.001709 290.990845,681.945129 290.719360,682.000610
	C290.280334,682.367676 290.112732,682.679260 289.973511,682.996338
	C290.001892,683.001831 289.991180,682.945129 289.720703,682.999695
	C289.281250,683.363647 289.112244,683.673096 288.971497,683.990845
	C288.999725,683.999207 288.979828,683.943726 288.693542,683.974243
	C288.252228,684.323792 288.097168,684.642822 287.970398,684.979858
	C287.998718,684.997986 287.961975,684.941772 287.670837,684.954224
	C287.233643,685.298035 287.087524,685.629395 286.969818,685.979370
	C286.998230,685.998108 286.960754,685.941406 286.669739,685.954041
	C286.232971,686.297974 286.087189,686.629272 285.972351,686.976685
	C286.003296,686.992737 285.949432,686.946838 285.665894,686.951172
	C285.193787,687.265320 285.005219,687.575195 284.816589,687.885010
	C280.607788,692.833984 276.398956,697.782959 272.448822,702.427795
	C241.298340,671.478210 211.632874,642.004150 181.967392,612.530029
	C181.469543,612.741211 180.971695,612.952393 180.473846,613.163574
	C180.473846,642.981873 180.473846,672.800171 180.473846,702.887390
	C157.229401,702.887390 134.837341,702.887390 112.701660,702.887390
	C112.701660,618.008789 112.701660,533.378845 112.701660,449.386353
	C154.695221,490.864044 196.600449,532.254517 238.908051,574.125244
	C240.190399,575.095215 241.070419,575.584900 241.974640,576.045654
	C241.998871,576.016785 241.925522,576.034424 241.841003,576.386719
	C242.161789,576.851135 242.567078,576.963257 242.981949,577.041992
	C242.991531,577.008667 242.924713,577.027405 242.838593,577.380554
	C243.159286,577.847595 243.566086,577.961426 243.982178,578.041931
	C243.991455,578.008545 243.924698,578.027161 243.838745,578.380371
	C244.159683,578.847473 244.566589,578.961426 244.982513,579.041931
	C244.991531,579.008545 244.924728,579.026367 244.839386,579.379456
	C245.160751,579.846741 245.567459,579.960999 245.982849,580.041870
	C245.991516,580.008423 245.924774,580.025940 245.839294,580.378967
	C246.160538,580.846375 246.567245,580.960815 246.982697,581.041870
	C246.991440,581.008484 246.924744,581.026245 246.839020,581.379333
	C247.160049,581.846741 247.566803,581.961060 247.982498,582.041870
	C247.991425,582.008484 247.924698,582.026550 247.839020,582.379639
	C248.160049,582.846924 248.566742,582.961121 248.982452,583.041870
	C248.991470,583.008484 248.924683,583.026672 248.838928,583.379883
	C249.159927,583.847229 249.566681,583.961304 249.982468,584.041992
	C249.991486,584.008545 249.924667,584.026672 249.838745,584.380005
	C250.159714,584.847290 250.566620,584.961365 250.981461,585.041687
	C250.989410,585.007935 250.921402,585.021240 250.782333,585.363281
	C255.421524,590.487549 260.199799,595.269897 264.989014,600.026062
	C264.999969,599.999939 264.944092,600.009399 265.002075,600.279846
	C265.371063,600.718750 265.682007,600.887207 265.997681,601.026672
	C266.002350,600.997681 265.944305,601.006470 266.001831,601.277588
	C266.370758,601.717712 266.682190,601.886719 266.998047,602.026611
	C267.002472,601.997498 266.944305,602.006348 267.002380,602.277100
	C267.371582,602.717102 267.682678,602.886414 267.998169,603.026611
	C268.002533,602.997498 267.944366,603.006287 268.003296,603.276489
	C268.372772,603.716309 268.683289,603.885986 268.997711,604.027100
	C269.001617,603.998535 268.946014,604.013611 269.043793,604.330811
	C270.280640,604.440369 271.419739,604.232788 272.803894,603.900757
	C274.036804,602.706177 275.024597,601.636108 276.335052,600.411072
	C276.795135,599.847778 276.932556,599.439453 277.035828,599.021240
	C277.001709,599.011414 277.041992,599.069885 277.387787,599.133423
	C277.846497,598.814819 277.959442,598.432617 278.038147,598.027100
	C278.003937,598.003784 278.050446,598.072327 278.400513,598.168579
	C278.857819,597.860107 278.965088,597.455383 279.038025,597.027222
	C279.003662,597.003723 279.050720,597.072388 279.400696,597.168640
	C279.857941,596.860229 279.965179,596.455505 280.038208,596.026978
	C280.003998,596.003113 280.050873,596.072144 280.403381,596.165649
	C280.862091,595.852600 280.968262,595.446045 281.041687,595.022705
	C281.008942,595.005859 281.036377,595.074158 281.388733,595.160767
	C281.852203,594.841675 281.963318,594.436035 282.041321,594.019226
	C282.008209,594.008057 282.030548,594.074280 282.383514,594.162659
	C282.849091,593.844177 282.961731,593.437317 283.041199,593.019226
	C283.008087,593.007996 283.030518,593.074280 283.383545,593.162720
	C283.849152,592.844177 283.961731,592.437256 284.041229,592.019226
	C284.008118,592.008118 284.030365,592.074341 284.383545,592.162842
	C284.849243,591.844299 284.961823,591.437195 285.041260,591.019165
	C285.008179,591.008118 285.030182,591.074341 285.383423,591.163025
	C285.849213,590.844482 285.961792,590.437317 286.041260,590.019104
	C286.008118,590.008118 286.030212,590.074341 286.383423,590.163208
	C286.849213,589.844727 286.961792,589.437500 287.041229,589.019165
	C287.008087,589.008057 287.030365,589.074341 287.383484,589.163208
	C287.849213,588.844849 287.961792,588.437683 288.041260,588.019287
	C288.008118,588.008057 288.030579,588.074341 288.383514,588.163086
	C288.849060,587.844727 288.961700,587.437622 289.041199,587.019348
	C289.008057,587.008118 289.030670,587.074341 289.383514,587.162842
	C289.849030,586.844360 289.961700,586.437500 290.041199,586.019348
	C290.008087,586.008118 290.030640,586.074341 290.383423,586.162598
	C290.848907,585.844055 290.961609,585.437256 291.041199,585.019287
	C291.008057,585.008057 291.030579,585.074341 291.383301,585.162476
	C291.848816,584.843872 291.961578,584.437195 292.040863,584.020691
	C292.007416,584.010864 292.024261,584.078552 292.355408,584.225464
	C294.141052,582.923401 295.595581,581.474426 297.025116,580.012695
	C297.000122,580.000000 297.012329,580.054688 297.283051,579.998657
	C297.720703,579.631531 297.887634,579.320435 298.026367,579.003784
	C297.998138,578.998169 298.008911,579.054688 298.280579,578.999512
	C298.719727,578.632629 298.887207,578.320801 299.026428,578.003540
	C298.998138,577.998108 299.009003,578.054688 299.280701,577.999573
	C299.719788,577.632629 299.887207,577.320862 300.026367,577.003662
	C299.998108,576.998169 300.009094,577.054688 300.280823,576.999634
	C300.719910,576.632812 300.887268,576.320984 301.026367,576.003662
	C300.998138,575.998169 301.009125,576.054626 301.280884,575.999634
	C301.719971,575.632812 301.887268,575.320984 302.026337,575.003662
	C301.998108,574.998169 302.009094,575.054565 302.280884,574.999634
	C302.719940,574.632874 302.887238,574.320984 303.026306,574.003662
	C302.998108,573.998169 303.009094,574.054565 303.280853,573.999634
	C303.719940,573.632874 303.887268,573.321045 304.026367,573.003662
	C303.998138,572.998169 304.009125,573.054626 304.280823,572.999634
	C304.719910,572.632812 304.887268,572.320984 305.026367,572.003662
	C304.998138,571.998169 305.009125,572.054688 305.280823,571.999634
	C305.719940,571.632751 305.887329,571.320984 306.026428,571.003662
	C305.998169,570.998230 306.009125,571.054749 306.280853,570.999634
	C306.719971,570.632812 306.887390,570.320984 307.026489,570.003662
	C306.998199,569.998169 307.009155,570.054810 307.280884,569.999756
	C307.720001,569.632874 307.887390,569.321045 308.026489,569.003784
	C307.998169,568.998230 308.008881,569.054932 308.283508,569.002930
	C308.724792,568.642883 308.891418,568.334778 309.029541,568.015137
	C309.001038,568.003601 309.029266,568.058228 309.321533,568.046265
	C309.761932,567.702209 309.910095,567.370117 310.030060,567.020142
	C310.001831,567.002197 310.037964,567.058350 310.328857,567.045044
	C310.765930,566.700562 310.912109,566.369507 311.030090,566.020142
	C311.001892,566.001953 311.038361,566.058289 311.329315,566.045227
	C311.766266,565.700928 311.912262,565.369751 312.030212,565.020142
	C312.002136,565.001709 312.037964,565.058350 312.329651,565.043335
	C312.767822,564.695496 312.914307,564.362732 313.031860,564.016174
	C313.002960,564.002380 313.029510,564.060669 313.321716,564.043457
	C313.763092,563.693115 313.912231,563.359985 314.031982,563.014709
	C314.002594,563.002502 314.026917,563.061340 314.319214,563.043701
	C314.761475,562.693054 314.911407,562.360107 315.031006,562.015625
	C315.000732,562.004211 314.997681,562.068909 315.328186,561.986328
	C345.823578,532.271362 376.015137,502.666107 406.147552,473.000763
	C457.284271,422.656708 508.372925,372.263855 559.503723,321.913757
	C581.924011,299.835754 604.436584,277.851318 626.826721,255.742935
	C634.370300,248.294327 641.665466,240.594193 649.040039,233.009048
	C649.006042,233.009094 649.047119,233.063354 649.364685,233.098785
	C649.809326,232.771729 649.936401,232.409256 650.032959,232.024323
	C650.002380,232.001831 650.046814,232.063416 650.364380,232.098557
	C650.809082,231.771301 650.936279,231.408905 651.032898,231.024338
	C651.002319,231.002151 651.046631,231.063446 651.364197,231.098450
	C651.809021,230.771088 651.936279,230.408722 652.032959,230.024216
	C652.002441,230.002075 652.046387,230.063446 652.364075,230.098511
	C652.809021,229.771118 652.936279,229.408676 653.032959,229.024170
	C653.002441,229.002090 653.046265,229.063446 653.364075,229.098663
	C653.809082,228.771301 653.936279,228.408737 654.032959,228.024200
	C654.002441,228.002243 654.046265,228.063461 654.364136,228.099014
	C654.809204,227.771759 654.936340,227.408951 655.032837,227.024292
	C655.002258,227.002457 655.045959,227.063766 655.368652,227.102325
	C655.815796,226.777374 655.940186,226.413849 656.032776,226.026260
	C656.000977,226.002182 656.049561,226.065552 656.393799,226.125687
	C656.848328,225.810913 656.958740,225.436005 657.034546,225.030563
	C657.000000,225.000031 657.061218,225.068848 657.410339,225.171936
	C657.862610,224.870529 657.965698,224.466003 658.034424,224.031036
	C658.000000,224.000610 658.061523,224.068848 658.410645,224.172165
	C658.862854,223.870911 658.965820,223.466324 659.034424,223.031113
	C659.000000,223.000473 659.061890,223.068680 659.412354,223.170944
	C659.865295,222.867661 659.967712,222.462112 660.038208,222.027328
	C660.006226,221.998093 660.054565,222.069626 660.405273,222.163055
	C660.861389,221.852188 660.966797,221.447922 661.038818,221.024200
	C661.005432,221.004761 661.043579,221.071869 661.395691,221.167923
	C661.855896,220.857132 661.963928,220.450287 662.038452,220.024231
	C662.005005,220.005005 662.043518,220.071899 662.395752,220.168030
	C662.855957,219.857178 662.963989,219.450165 663.038452,219.024139
	C663.004944,219.005127 663.043274,219.071960 663.395569,219.168289
	C663.855896,218.857468 663.963928,218.450317 664.038452,218.024155
	C664.004944,218.005157 664.043274,218.071960 664.395569,218.168365
	C664.855896,217.857574 664.963928,217.450378 665.038391,217.024170
	C665.004883,217.005173 665.043335,217.071976 665.395508,217.168503
	C665.855774,216.857956 665.963806,216.450882 666.041260,216.023041
	C666.010620,216.002274 666.036316,216.071716 666.383423,216.157425
	C666.989563,215.850983 667.248718,215.458817 667.733032,214.825073
	C668.635620,213.467636 669.152527,212.204712 670.017456,211.260559
	C674.526184,206.338318 679.097595,201.472397 683.706055,196.643051
	C685.056458,195.227936 686.580688,193.975021 688.058777,192.686157
	C690.763000,190.328064 693.444519,187.939758 696.230469,185.681061
	C697.706543,184.484344 699.382080,183.533585 701.784851,181.924454
	C702.534851,186.742325 703.066162,190.155075 703.597412,193.567825
	C705.482239,194.743866 706.984619,196.411606 706.870850,197.960754
	C706.583618,201.875641 705.651672,205.754715 704.826599,209.615799
	C703.703552,214.871078 703.250549,220.469864 701.048828,225.247925
	C697.643555,232.637619 698.221741,240.329926 697.457275,247.951797
	C697.287476,294.727722 697.127686,341.503693 696.944275,388.279602
	C696.824829,418.742310 696.707153,449.205078 696.523315,479.667450
	C696.293274,517.782776 695.996216,555.897705 695.874512,594.465454
	C696.020996,594.918152 695.973633,594.851135 695.973633,594.851135
z"/>
<path fill="#FBB03C" opacity="1.000000" stroke="none"
	d="
M276.012390,600.566040
	C275.024597,601.636108 274.036804,602.706177 272.350952,603.845947
	C270.750641,603.948242 269.848328,603.980896 268.946014,604.013550
	C268.946014,604.013611 269.001617,603.998535 269.010376,603.712402
	C268.660858,603.286316 268.302612,603.146301 267.944366,603.006287
	C267.944366,603.006287 268.002533,602.997498 268.010132,602.712402
	C267.659912,602.286926 267.302124,602.146606 266.944305,602.006348
	C266.944305,602.006348 267.002472,601.997498 267.009949,601.712402
	C266.659729,601.287048 266.302002,601.146790 265.944305,601.006470
	C265.944305,601.006470 266.002350,600.997681 266.012268,600.709351
	C265.662811,600.283813 265.303436,600.146606 264.944092,600.009399
	C264.944092,600.009399 264.999969,599.999939 265.101990,599.678467
	C260.443146,594.578430 255.682266,589.799805 250.921402,585.021240
	C250.921402,585.021240 250.989410,585.007935 250.933456,584.764221
	C250.559891,584.355896 250.242279,584.191284 249.924667,584.026672
	C249.924667,584.026672 249.991486,584.008545 249.934616,583.764526
	C249.560043,583.355835 249.242355,583.191284 248.924683,583.026733
	C248.924683,583.026672 248.991470,583.008484 248.934662,582.764404
	C248.560135,582.355713 248.242416,582.191101 247.924698,582.026550
	C247.924698,582.026550 247.991425,582.008484 247.934464,581.764526
	C247.559921,581.355774 247.242340,581.190979 246.924744,581.026245
	C246.924744,581.026245 246.991440,581.008484 246.933868,580.764893
	C246.559128,580.356140 246.241959,580.191040 245.924774,580.025940
	C245.924774,580.025940 245.991516,580.008423 245.933899,579.764893
	C245.559097,579.356323 245.241913,579.191345 244.924728,579.026367
	C244.924728,579.026367 244.991531,579.008545 244.935287,578.764038
	C244.560928,578.355347 244.242813,578.191223 243.924698,578.027161
	C243.924698,578.027161 243.991455,578.008545 243.935684,577.763672
	C243.561508,577.355042 243.243103,577.191223 242.924713,577.027466
	C242.924713,577.027405 242.991531,577.008667 242.937317,576.761353
	C242.563919,576.354126 242.244720,576.194275 241.925522,576.034424
	C241.925522,576.034424 241.998871,576.016785 242.038620,575.788330
	C241.944794,575.061646 241.811203,574.563293 241.677612,574.065002
	C235.176086,538.814575 233.660995,503.411560 237.660614,467.728485
	C244.971909,402.500061 268.683319,343.851685 308.460693,291.833160
	C356.221252,229.374649 418.414520,187.798874 493.840729,165.948425
	C526.154724,156.587296 559.225586,152.036179 592.832825,152.412994
	C673.913025,153.322067 746.578186,178.723038 810.437439,228.741730
	C866.228943,272.441223 905.034241,328.296875 927.420715,395.405762
	C933.176697,412.660675 937.008362,430.557526 941.950867,449.006378
	C916.345337,453.272217 892.040771,457.321289 867.777100,461.363556
	C847.265869,361.201080 791.648193,289.740601 697.842102,248.196182
	C698.221741,240.329926 697.643555,232.637619 701.048828,225.247925
	C703.250549,220.469864 703.703552,214.871078 704.826599,209.615799
	C705.651672,205.754715 706.583618,201.875641 706.870850,197.960754
	C706.984619,196.411606 705.482239,194.743866 703.597412,193.567825
	C703.066162,190.155075 702.534851,186.742325 701.784851,181.924454
	C699.382080,183.533585 697.706543,184.484344 696.230469,185.681061
	C693.444519,187.939758 690.763000,190.328064 688.058777,192.686157
	C686.580688,193.975021 685.056458,195.227936 683.706055,196.643051
	C679.097595,201.472397 674.526184,206.338318 670.017456,211.260559
	C669.152527,212.204712 668.635620,213.467636 667.396729,214.851120
	C666.568970,215.436417 666.302673,215.754074 666.036316,216.071716
	C666.036316,216.071716 666.010620,216.002274 665.764160,216.061981
	C665.359619,216.438461 665.201477,216.755219 665.043335,217.071976
	C665.043335,217.071976 665.004883,217.005173 664.761841,217.064560
	C664.360291,217.439957 664.201782,217.755951 664.043274,218.071960
	C664.043274,218.071960 664.004944,218.005157 663.761841,218.064545
	C663.360291,218.439941 663.201782,218.755951 663.043274,219.071960
	C663.043274,219.071960 663.004944,219.005127 662.761597,219.064301
	C662.359985,219.439606 662.201721,219.755737 662.043457,220.071884
	C662.043518,220.071899 662.005005,220.005005 661.761292,220.063538
	C661.359558,220.438675 661.201599,220.755264 661.043579,221.071869
	C661.043579,221.071869 661.005432,221.004761 660.758545,221.061768
	C660.359314,221.435715 660.206970,221.752670 660.054565,222.069626
	C660.054565,222.069626 660.006226,221.998093 659.742798,222.029083
	C659.340210,222.396271 659.201050,222.732483 659.061890,223.068695
	C659.061890,223.068680 659.000000,223.000473 658.739441,223.031281
	C658.339722,223.397675 658.200623,223.733261 658.061523,224.068848
	C658.061523,224.068848 658.000000,224.000610 657.739624,224.031616
	C657.339905,224.398041 657.200562,224.733444 657.061218,225.068848
	C657.061218,225.068848 657.000000,225.000031 656.739685,225.031128
	C656.336121,225.396667 656.192810,225.731110 656.049561,226.065552
	C656.049561,226.065552 656.000977,226.002182 655.737549,226.029633
	C655.331360,226.392654 655.188660,226.728210 655.045959,227.063766
	C655.045959,227.063766 655.002258,227.002457 654.737427,227.028824
	C654.330505,227.391281 654.188416,227.727371 654.046265,228.063477
	C654.046265,228.063461 654.002441,228.002243 653.737427,228.028534
	C653.330322,228.391052 653.188293,228.727249 653.046265,229.063446
	C653.046265,229.063446 653.002441,229.002090 652.737305,229.028229
	C652.330261,229.390732 652.188354,229.727097 652.046387,230.063446
	C652.046387,230.063446 652.002441,230.002075 651.737183,230.027985
	C651.330078,230.390411 651.188354,230.726929 651.046631,231.063446
	C651.046631,231.063446 651.002319,231.002151 650.736938,231.027771
	C650.330017,231.390060 650.188416,231.726746 650.046814,232.063416
	C650.046814,232.063416 650.002380,232.001831 649.736755,232.027206
	C649.329773,232.389511 649.188477,232.726425 649.047119,233.063354
	C649.047119,233.063354 649.006042,233.009094 648.631592,232.974396
	C617.525513,226.674240 586.566833,225.234406 555.466064,229.284317
	C519.836548,233.923935 486.087036,244.647614 454.663483,262.192535
	C400.456726,292.458160 360.483704,335.925995 334.751007,392.428650
	C322.676727,418.940643 315.133392,446.704010 311.902588,475.679230
	C309.569305,496.605621 309.330048,517.492798 311.938507,538.395020
	C312.923828,546.290588 313.975983,554.177856 314.997681,562.068909
	C314.997681,562.068909 315.000732,562.004211 314.722870,562.006775
	C314.305634,562.359985 314.166260,562.710693 314.026917,563.061340
	C314.026917,563.061340 314.002594,563.002502 313.721924,563.005615
	C313.304016,563.359314 313.166779,563.710022 313.029510,564.060669
	C313.029510,564.060669 313.002960,564.002380 312.712463,563.996216
	C312.293945,564.346130 312.165955,564.702209 312.037964,565.058350
	C312.037964,565.058350 312.002136,565.001709 311.704773,564.971924
	C311.284393,565.314209 311.161377,565.686218 311.038391,566.058289
	C311.038361,566.058289 311.001892,566.001953 310.704773,565.972229
	C310.284454,566.314453 310.161224,566.686401 310.037964,567.058350
	C310.037964,567.058350 310.001831,567.002197 309.704712,566.972412
	C309.281464,567.314514 309.155365,567.686401 309.029236,568.058228
	C309.029266,568.058228 309.001038,568.003601 308.717163,567.996460
	C308.291809,568.344543 308.150330,568.699707 308.008881,569.054932
	C308.008881,569.054932 307.998169,568.998230 307.712952,568.991089
	C307.288208,569.340942 307.148682,569.697876 307.009155,570.054810
	C307.009155,570.054810 306.998199,569.998169 306.712891,569.991028
	C306.288116,570.340820 306.148621,570.697815 306.009094,571.054749
	C306.009125,571.054749 305.998169,570.998230 305.712830,570.990967
	C305.288025,571.340759 305.148590,571.697693 305.009155,572.054688
	C305.009125,572.054688 304.998138,571.998169 304.712646,571.990723
	C304.287811,572.340332 304.148468,572.697510 304.009125,573.054626
	C304.009125,573.054626 303.998138,572.998169 303.712585,572.990540
	C303.287720,573.340149 303.148407,573.697388 303.009094,574.054565
	C303.009094,574.054565 302.998108,573.998169 302.712494,573.990417
	C302.287628,574.339966 302.148376,574.697266 302.009094,575.054565
	C302.009094,575.054565 301.998108,574.998169 301.712524,574.990417
	C301.287628,575.339966 301.148376,575.697266 301.009094,576.054626
	C301.009125,576.054626 300.998138,575.998169 300.712646,575.990601
	C300.287781,576.340271 300.148438,576.697449 300.009094,577.054688
	C300.009094,577.054688 299.998108,576.998169 299.712769,576.990845
	C299.287964,577.340576 299.148499,577.697632 299.009003,578.054688
	C299.009003,578.054688 298.998138,577.998108 298.712952,577.991089
	C298.288116,578.340942 298.148499,578.697815 298.008911,579.054688
	C298.008911,579.054688 297.998138,578.998169 297.709351,578.988770
	C297.284485,579.337830 297.148407,579.696289 297.012329,580.054688
	C297.012329,580.054688 297.000122,580.000000 296.685883,579.892212
	C294.922516,581.215820 293.473389,582.647156 292.024261,584.078552
	C292.024261,584.078552 292.007416,584.010864 291.761963,584.064148
	C291.354523,584.436401 291.192566,584.755371 291.030579,585.074341
	C291.030579,585.074341 291.008057,585.008057 290.762207,585.062622
	C290.354462,585.436279 290.192566,585.755310 290.030640,586.074341
	C290.030640,586.074341 290.008087,586.008118 289.762207,586.062683
	C289.354462,586.436279 289.192566,586.755310 289.030670,587.074341
	C289.030670,587.074341 289.008057,587.008118 288.762329,587.062805
	C288.354614,587.436462 288.192627,587.755432 288.030579,588.074341
	C288.030579,588.074341 288.008118,588.008057 287.762634,588.063110
	C287.354889,588.436951 287.192627,588.755615 287.030365,589.074341
	C287.030365,589.074341 287.008087,589.008057 286.762909,589.063599
	C286.355225,589.437561 286.192719,589.755981 286.030212,590.074341
	C286.030212,590.074341 286.008118,590.008118 285.762939,590.063782
	C285.355255,590.437744 285.192719,590.756042 285.030182,591.074341
	C285.030182,591.074341 285.008179,591.008118 284.762817,591.063599
	C284.355103,591.437439 284.192719,591.755920 284.030365,592.074341
	C284.030365,592.074341 284.008118,592.008118 283.762512,592.063110
	C283.354736,592.436768 283.192627,592.755554 283.030518,593.074280
	C283.030518,593.074280 283.008087,593.007996 282.762329,593.062744
	C282.354584,593.436462 282.192566,593.755371 282.030518,594.074280
	C282.030548,594.074280 282.008209,594.008057 281.762756,594.062744
	C281.356964,594.436279 281.196655,594.755249 281.036377,595.074158
	C281.036377,595.074158 281.008942,595.005859 280.747101,595.041382
	C280.340454,595.408691 280.195648,595.740417 280.050842,596.072144
	C280.050873,596.072144 280.003998,596.003113 279.739868,596.028625
	C279.334106,596.393555 279.192413,596.732971 279.050720,597.072388
	C279.050720,597.072388 279.003662,597.003723 278.739777,597.029053
	C278.334076,597.393738 278.192261,597.733032 278.050415,598.072327
	C278.050446,598.072327 278.003937,598.003784 277.739960,598.028931
	C277.331329,598.392700 277.186646,598.731323 277.041992,599.069885
	C277.041992,599.069885 277.001709,599.011414 276.686340,599.107178
	C276.251434,599.657288 276.131927,600.111694 276.012390,600.566040
z"/>
<path fill="#FBB03C" opacity="1.000000" stroke="none"
	d="
M321.074585,652.584045
	C324.338043,649.158264 327.601532,645.732422 331.498047,642.087646
	C334.089569,639.759460 336.048004,637.650269 338.006439,635.541077
	C338.017456,635.305603 338.128387,635.135132 338.497528,635.031616
	C339.980713,636.283997 341.746735,637.296936 342.566681,638.819458
	C372.445312,694.299011 415.864410,735.496948 472.902069,762.219910
	C499.743958,774.795715 527.983643,782.603455 557.466980,786.019592
	C589.166382,789.692566 620.546265,788.156738 651.662964,781.090759
	C652.791504,780.834473 653.975891,780.824280 655.583130,781.200928
	C656.016052,783.717590 655.327637,786.069702 656.131531,787.674072
	C657.575317,790.555725 659.711060,793.816895 663.673645,792.693542
	C666.227173,791.969666 669.676636,790.504272 670.508545,788.466614
	C671.989563,784.838745 673.978088,780.181946 668.970825,777.019104
	C685.445740,770.387268 702.359375,764.661011 718.305298,756.937134
	C752.634521,740.308594 781.405518,716.303101 806.022461,687.257019
	C806.986206,686.119934 807.821411,684.873840 809.022034,683.270508
	C778.497437,664.798218 748.120361,646.415222 717.339355,627.787720
	C722.577759,619.106140 727.525269,610.906677 732.527344,602.616760
	C736.715576,603.810608 739.497131,605.148071 739.547852,610.255859
	C739.570923,612.586792 742.276245,615.498901 744.513489,617.104553
	C763.262756,630.560608 784.137756,640.058105 804.845459,650.055786
	C828.329041,661.393738 850.939575,674.543518 873.881592,686.994141
	C876.197754,688.251099 878.049866,690.355469 880.353149,691.645569
	C883.694153,693.516907 887.250122,695.004517 891.374329,696.970398
	C885.079041,705.792419 878.371460,716.025940 870.840210,725.612305
	C817.591919,793.390869 748.479919,836.076721 664.548035,854.802673
	C631.893005,862.088318 598.703369,864.448669 565.332214,861.897705
	C490.885071,856.206909 424.493958,829.936584 366.323364,783.019714
	C335.172791,757.895630 309.371826,728.097839 288.342529,694.111145
	C287.307648,692.438660 286.578369,690.577087 285.949036,688.170776
	C286.110687,687.340942 286.030060,687.143921 285.949432,686.946838
	C285.949432,686.946838 286.003296,686.992737 286.299042,687.027588
	C286.716797,686.688721 286.838776,686.315063 286.960754,685.941406
	C286.960754,685.941406 286.998230,685.998108 287.296326,686.030151
	C287.716919,685.688660 287.839447,685.315247 287.961975,684.941772
	C287.961975,684.941772 287.998718,684.997986 288.296906,685.030396
	C288.723328,684.689819 288.851593,684.316772 288.979828,683.943726
	C288.979828,683.943726 288.999725,683.999207 289.285645,684.008179
	C289.711426,683.659790 289.851288,683.302429 289.991180,682.945129
	C289.991180,682.945129 290.001892,683.001831 290.288452,683.011230
	C290.713623,682.662170 290.852264,682.303650 290.990845,681.945129
	C290.990845,681.945129 291.001801,682.001709 291.288452,682.011414
	C291.713654,681.662476 291.852203,681.303772 291.990723,680.945129
	C291.990723,680.945129 292.001770,681.001770 292.288452,681.011475
	C292.713654,680.662476 292.852203,680.303833 292.990723,679.945129
	C292.990692,679.945129 293.001709,680.001770 293.288269,680.011230
	C293.713440,679.662109 293.852051,679.303650 293.990692,678.945129
	C293.990692,678.945129 294.001709,679.001770 294.288208,679.011047
	C294.713379,678.661926 294.852051,678.303528 294.990692,677.945129
	C294.990692,677.945129 295.001709,678.001770 295.288269,678.011047
	C295.713440,677.661926 295.852051,677.303528 295.990692,676.945129
	C295.990692,676.945129 296.001709,677.001770 296.288330,677.011108
	C296.713562,676.662048 296.852112,676.303589 296.990662,675.945129
	C296.990692,675.945129 297.001709,676.001770 297.288391,676.011292
	C297.713623,675.662231 297.852142,675.303650 297.990662,674.945068
	C297.990692,674.945068 298.001709,675.001648 298.288422,675.011292
	C298.713654,674.662292 298.852173,674.303711 298.990692,673.945068
	C298.990692,673.945068 299.001709,674.001648 299.288391,674.011353
	C299.713623,673.662354 299.852142,673.303711 299.990662,672.945068
	C299.990692,672.945068 300.001495,673.001587 300.297180,673.017761
	C300.723053,672.671143 300.853241,672.308350 300.983398,671.945557
	C300.983398,671.945557 300.999451,672.000000 301.305969,672.126831
	C302.733704,671.141357 303.854889,670.029053 304.976074,668.916748
	C304.976074,668.916748 304.991943,668.986084 305.235901,668.932129
	C305.643494,668.560669 305.807190,668.243042 305.970825,667.925415
	C305.970825,667.925415 305.991699,667.991760 306.236206,667.935181
	C306.644165,667.560913 306.807556,667.243164 306.970978,666.925415
	C306.970978,666.925415 306.991760,666.991760 307.236389,666.935364
	C307.644318,666.561157 307.807617,666.243286 307.970947,665.925476
	C307.970947,665.925476 307.991760,665.991821 308.236847,665.936096
	C308.644867,665.562134 308.807800,665.243835 308.970703,664.925537
	C308.970703,664.925537 308.991791,664.991882 309.237427,664.936890
	C309.645508,664.563171 309.807953,664.244385 309.970398,663.925598
	C309.970398,663.925598 309.991821,663.991882 310.237671,663.937378
	C310.645813,663.563721 310.808044,663.244690 310.970276,662.925598
	C310.970276,662.925598 310.991821,662.991821 311.237579,662.937134
	C311.645691,662.563538 311.808044,662.244507 311.970398,661.925537
	C311.970398,661.925537 311.991852,661.991760 312.237000,661.936279
	C312.645020,661.562256 312.807861,661.243835 312.970703,660.925415
	C312.970734,660.925415 312.991852,660.991699 313.236389,660.935242
	C313.644287,660.560974 313.807678,660.243164 313.971069,659.925354
	C313.971039,659.925354 313.991791,659.991699 314.235840,659.934570
	C314.643677,659.560059 314.807465,659.242676 314.971222,658.925354
	C314.971222,658.925354 314.991730,658.991699 315.235596,658.934326
	C315.643433,658.559692 315.807343,658.242493 315.971252,657.925354
	C315.971283,657.925354 315.991577,657.991943 316.237183,657.935303
	C316.642517,657.561035 316.802246,657.243530 316.961975,656.925964
	C316.962006,656.925964 316.991150,656.994446 317.254395,656.963928
	C317.661987,656.598022 317.806335,656.262634 317.950684,655.927246
	C317.950714,655.927246 317.994995,655.995483 318.258362,655.968872
	C318.664795,655.603882 318.807831,655.265442 318.950867,654.927063
	C318.950867,654.927063 318.995331,654.995178 319.258789,654.969055
	C319.665100,654.604370 319.807922,654.265808 319.950775,653.927246
	C319.950775,653.927246 320.000854,653.987671 320.304565,653.914673
	C320.763733,653.422485 320.919159,653.003235 321.074585,652.584045
M691.951721,788.841125
	C695.372864,785.768250 695.771606,780.198059 692.066040,778.039429
	C690.005310,776.838989 686.653992,777.155457 684.130981,777.781738
	C683.082581,778.041992 682.115540,780.882446 682.080139,782.569824
	C681.947327,788.903564 687.074829,788.327515 691.951721,788.841125
M711.887085,793.835449
	C710.457031,790.390991 707.767395,788.188660 704.260803,789.469910
	C702.521484,790.105469 700.233704,793.674927 700.717346,794.986816
	C701.582642,797.333862 704.158386,800.267639 706.381042,800.610535
	C709.683533,801.120056 712.135437,798.556702 711.887085,793.835449
M701.304443,775.694824
	C701.240295,777.431763 700.516602,779.619385 701.305298,780.773438
	C702.032471,781.837524 705.634399,782.458740 705.812561,782.124634
	C706.821594,780.232361 707.181946,777.994141 707.763123,775.873657
	C705.754517,775.604736 703.745911,775.335815 701.304443,775.694824
z"/>
<path fill="#F15A25" opacity="1.000000" stroke="none"
	d="
M574.000000,706.000244
	C566.348511,706.000244 559.197021,706.000244 551.326416,706.000244
	C551.326416,649.038879 551.326416,592.369202 551.326416,534.877991
	C501.619232,584.595825 452.685150,633.540405 403.985260,682.250793
	C389.465973,667.597351 375.454895,653.456848 361.991882,639.869446
	C445.015747,556.866577 528.670532,473.232910 611.747803,390.176605
	C611.747803,494.285919 611.747803,599.805847 611.747803,706.000244
	C599.342468,706.000244 586.921265,706.000244 574.000000,706.000244
z"/>
<path fill="#FBB13E" opacity="1.000000" stroke="none"
	d="
M873.340454,655.672729
	C847.456360,639.627441 822.077087,623.462097 796.250427,608.046143
	C784.297363,600.911316 771.537842,595.101624 758.978271,589.034180
	C756.868958,588.015198 753.135864,587.684265 751.502441,588.879517
	C747.417847,591.868469 744.911072,589.944946 741.772217,587.309937
	C746.413818,579.599182 751.016968,571.952332 755.883850,563.867249
	C808.574036,595.718811 860.996338,627.408447 913.824158,659.343201
	C910.353516,665.081726 907.211792,670.276306 903.242554,676.839111
	C903.464844,669.583557 899.969971,667.362671 894.992126,665.536682
	C887.682434,662.855347 880.753418,659.136169 873.340454,655.672729
z"/>
<path fill="#FBB13E" opacity="1.000000" stroke="none"
	d="
M695.980713,594.919739
	C703.036743,583.304443 710.133057,571.687561 717.608276,560.263428
	C718.582642,560.936157 719.110168,561.684204 719.784058,561.855042
	C727.614319,563.839844 728.164001,564.904236 725.148804,572.134521
	C723.125610,576.985840 723.411682,581.493530 727.622375,585.162781
	C730.071167,587.296814 732.626465,589.308655 735.133850,591.375488
	C734.480713,592.750916 733.827576,594.126343 732.673706,595.610107
	C727.968933,593.756287 723.818115,591.668335 719.546997,589.865112
	C714.722595,587.828430 710.868164,588.963013 707.642578,593.034973
	C701.414490,600.897156 701.421814,607.768250 707.437805,617.797791
	C708.579285,619.700806 709.129517,621.958435 709.952576,624.052490
	C702.806519,615.867126 694.175537,608.399780 696.119873,595.299622
	C695.973633,594.851135 696.020996,594.918152 695.980713,594.919739
M707.901978,584.024048
	C712.463806,577.664368 717.025696,571.304688 722.437073,563.760681
	C720.124756,564.875732 718.007568,565.195007 717.246094,566.383118
	C713.587646,572.091980 710.295471,578.035461 706.326111,584.264832
	C705.596619,585.610779 704.867126,586.956726 704.137634,588.302673
	C704.577637,588.489014 705.017700,588.675293 705.457764,588.861633
	C706.054932,587.310303 706.652039,585.758911 707.901978,584.024048
M702.042358,593.975952
	C702.111755,594.288147 702.166931,594.604858 702.262207,594.908936
	C702.281799,594.971680 702.450806,594.987488 702.550964,595.024902
	C703.067078,593.619995 703.583252,592.215088 704.099426,590.810242
	C703.752869,590.691467 703.406311,590.572754 703.059753,590.454041
	C702.720459,591.408264 702.381226,592.362488 702.042358,593.975952
z"/>
<path fill="#F4700F" opacity="1.000000" stroke="none"
	d="
M709.962402,624.036255
	C709.129517,621.958435 708.579285,619.700806 707.437805,617.797791
	C701.421814,607.768250 701.414490,600.897156 707.642578,593.034973
	C710.868164,588.963013 714.722595,587.828430 719.546997,589.865112
	C723.818115,591.668335 727.968933,593.756287 732.471191,595.875610
	C732.013245,597.467712 731.256897,598.902649 730.377808,600.570496
	C727.226746,599.439270 724.300598,598.356018 721.351624,597.339172
	C718.214966,596.257629 715.081909,594.802002 712.217102,598.080505
	C709.170288,601.567383 706.452576,605.109070 708.326843,610.120789
	C710.217834,615.177246 712.195129,620.201538 713.701172,625.641479
	C712.776001,626.127075 712.284241,626.211243 711.792480,626.295410
	C711.792480,626.295410 711.803711,626.201843 711.825867,625.879272
	C711.213928,625.049316 710.579834,624.541870 709.945740,624.034485
	C709.945740,624.034485 709.972229,624.020020 709.962402,624.036255
z"/>
<path fill="#F47110" opacity="1.000000" stroke="none"
	d="
M735.415710,591.184265
	C732.626465,589.308655 730.071167,587.296814 727.622375,585.162781
	C723.411682,581.493530 723.125610,576.985840 725.148804,572.134521
	C728.164001,564.904236 727.614319,563.839844 719.784058,561.855042
	C719.110168,561.684204 718.582642,560.936157 717.892822,560.067261
	C719.396606,559.292358 721.329468,558.135071 722.533142,558.657532
	C727.086792,560.634521 731.507324,562.989136 735.730286,565.602234
	C736.681213,566.190674 737.406982,568.786438 736.901489,569.776794
	C735.391907,572.734558 731.551025,575.487915 731.757996,578.069519
	C731.981506,580.857666 735.747192,583.361755 738.368713,586.464294
	C737.669800,587.649292 736.683655,589.321167 735.415710,591.184265
z"/>
<path fill="#97352E" opacity="1.000000" stroke="none"
	d="
M668.601196,776.980591
	C673.978088,780.181946 671.989563,784.838745 670.508545,788.466614
	C669.676636,790.504272 666.227173,791.969666 663.673645,792.693542
	C659.711060,793.816895 657.575317,790.555725 656.131531,787.674072
	C655.327637,786.069702 656.016052,783.717590 655.999756,781.317383
	C655.967529,780.932312 655.997620,780.970337 656.261353,780.992188
	C656.758789,780.718079 656.992554,780.422180 657.226318,780.126343
	C658.043457,779.350891 659.010925,778.682373 659.651489,777.781433
	C662.227173,774.158447 665.101074,774.444336 668.601196,776.980591
z"/>
<path fill="#FBB343" opacity="1.000000" stroke="none"
	d="
M731.672241,559.279297
	C728.749939,557.695007 726.152527,556.294800 723.190308,554.697937
	C724.857483,551.947327 726.286438,549.589783 728.200378,546.432007
	C733.608887,549.265015 738.790710,551.979309 744.514282,554.977295
	C742.530334,558.164917 741.009705,560.608093 739.343323,563.285461
	C736.653503,561.885925 734.325378,560.674622 731.672241,559.279297
z"/>
<path fill="#EFDACE" opacity="1.000000" stroke="none"
	d="
M241.246155,574.041138
	C241.811203,574.563293 241.944794,575.061646 242.014404,575.817261
	C241.070419,575.584900 240.190399,575.095215 239.201172,574.289795
	C239.666183,573.988403 240.240448,574.002808 241.246155,574.041138
z"/>
<path fill="#FBB13E" opacity="1.000000" stroke="none"
	d="
M709.965698,624.342529
	C710.579834,624.541870 711.213928,625.049316 711.786011,625.904419
	C711.144531,625.718262 710.565063,625.184448 709.965698,624.342529
z"/>
<path fill="#FBB13E" opacity="1.000000" stroke="none"
	d="
M711.964294,626.558655
	C712.284241,626.211243 712.776001,626.127075 713.641968,626.022034
	C713.389526,626.274719 712.762817,626.548279 711.964294,626.558655
z"/>
<path fill="#FBB03C" opacity="1.000000" stroke="none"
	d="
M656.910400,780.094299
	C656.992554,780.422180 656.758789,780.718079 656.239136,780.991028
	C656.167053,780.666138 656.380798,780.364197 656.910400,780.094299
z"/>
<path fill="#EFD8CB" opacity="1.000000" stroke="none"
	d="
M285.665894,686.951172
	C286.030060,687.143921 286.110687,687.340942 286.000092,687.795288
	C285.640076,688.045288 285.471252,688.037964 285.059509,687.957764
	C285.005219,687.575195 285.193787,687.265320 285.665894,686.951172
z"/>
<path fill="#FFFEFE" opacity="1.000000" stroke="none"
	d="
M315.328186,561.986328
	C313.975983,554.177856 312.923828,546.290588 311.938507,538.395020
	C309.330048,517.492798 309.569305,496.605621 311.902588,475.679230
	C315.133392,446.704010 322.676727,418.940643 334.751007,392.428650
	C360.483704,335.925995 400.456726,292.458160 454.663483,262.192535
	C486.087036,244.647614 519.836548,233.923935 555.466064,229.284317
	C586.566833,225.234406 617.525513,226.674240 648.665649,232.974365
	C641.665466,240.594193 634.370300,248.294327 626.826721,255.742935
	C604.436584,277.851318 581.924011,299.835754 559.503723,321.913757
	C508.372925,372.263855 457.284271,422.656708 406.147552,473.000763
	C376.015137,502.666107 345.823578,532.271362 315.328186,561.986328
z"/>
<path fill="#EFDACE" opacity="1.000000" stroke="none"
	d="
M250.782333,585.363281
	C255.682266,589.799805 260.443146,594.578430 265.091034,599.704590
	C260.199799,595.269897 255.421524,590.487549 250.782333,585.363281
z"/>
<path fill="#EFD8CB" opacity="1.000000" stroke="none"
	d="
M337.741821,635.781982
	C336.048004,637.650269 334.089569,639.759460 331.839844,641.997559
	C333.524780,640.091980 335.501007,638.057434 337.741821,635.781982
z"/>
<path fill="#EFD7C9" opacity="1.000000" stroke="none"
	d="
M292.355408,584.225464
	C293.473389,582.647156 294.922516,581.215820 296.710876,579.904907
	C295.595581,581.474426 294.141052,582.923401 292.355408,584.225464
z"/>
<path fill="#EFD8CB" opacity="1.000000" stroke="none"
	d="
M304.663635,668.721802
	C303.854889,670.029053 302.733704,671.141357 301.281860,672.111938
	C302.084503,670.822388 303.217834,669.674683 304.663635,668.721802
z"/>
<path fill="#EFDACE" opacity="1.000000" stroke="none"
	d="
M269.043793,604.330750
	C269.848328,603.980896 270.750641,603.948242 272.105896,603.970398
	C271.419739,604.232788 270.280640,604.440369 269.043793,604.330750
z"/>
<path fill="#EFD8CB" opacity="1.000000" stroke="none"
	d="
M316.609253,656.839966
	C316.802246,657.243530 316.642517,657.561035 316.203979,657.924927
	C316.035614,657.565491 316.146088,657.159790 316.609253,656.839966
z"/>
<path fill="#EFD8CB" opacity="1.000000" stroke="none"
	d="
M320.718140,652.671997
	C320.919159,653.003235 320.763733,653.422485 320.268555,653.899109
	C320.073120,653.557678 320.217438,653.158752 320.718140,652.671997
z"/>
<path fill="#EFD8CB" opacity="1.000000" stroke="none"
	d="
M315.617554,657.836548
	C315.807343,658.242493 315.643433,658.559692 315.202393,658.924133
	C315.038147,658.563477 315.151001,658.155640 315.617554,657.836548
z"/>
<path fill="#EFD8CB" opacity="1.000000" stroke="none"
	d="
M314.617615,658.836548
	C314.807465,659.242676 314.643677,659.560059 314.202637,659.924316
	C314.038269,659.563416 314.151123,659.155518 314.617615,658.836548
z"/>
<path fill="#EFD8CB" opacity="1.000000" stroke="none"
	d="
M313.617645,659.836670
	C313.807678,660.243164 313.644287,660.560974 313.203186,660.924927
	C313.038391,660.563354 313.151306,660.155640 313.617645,659.836670
z"/>
<path fill="#EFD8CB" opacity="1.000000" stroke="none"
	d="
M312.617493,660.836975
	C312.807861,661.243835 312.645020,661.562256 312.203857,661.925659
	C312.038452,661.563293 312.151367,661.155884 312.617493,660.836975
z"/>
<path fill="#EFD8CB" opacity="1.000000" stroke="none"
	d="
M311.617310,661.837280
	C311.808044,662.244507 311.645691,662.563538 311.204468,662.926453
	C311.038452,662.563293 311.151337,662.156189 311.617310,661.837280
z"/>
<path fill="#EFD8CB" opacity="1.000000" stroke="none"
	d="
M310.617188,662.837585
	C310.808044,663.244690 310.645813,663.563721 310.204559,663.926636
	C310.038422,663.563477 310.151276,663.156494 310.617188,662.837585
z"/>
<path fill="#EFD8CB" opacity="1.000000" stroke="none"
	d="
M317.598206,655.833130
	C317.806335,656.262634 317.661987,656.598022 317.221741,656.946106
	C317.032471,656.552246 317.139099,656.145630 317.598206,655.833130
z"/>
<path fill="#EFD8CB" opacity="1.000000" stroke="none"
	d="
M318.599915,654.830505
	C318.807831,655.265442 318.664795,655.603882 318.224365,655.946533
	C318.034302,655.545166 318.141663,655.139587 318.599915,654.830505
z"/>
<path fill="#EFD8CB" opacity="1.000000" stroke="none"
	d="
M319.600281,653.831421
	C319.807922,654.265808 319.665100,654.604370 319.224701,654.946899
	C319.034668,654.545715 319.142212,654.140686 319.600281,653.831421
z"/>
<path fill="#EFD8CB" opacity="1.000000" stroke="none"
	d="
M307.617310,665.837036
	C307.807617,666.243286 307.644318,666.561157 307.203186,666.925049
	C307.038147,666.563538 307.150909,666.156067 307.617310,665.837036
z"/>
<path fill="#E2C6C2" opacity="1.000000" stroke="none"
	d="
M661.395691,221.167923
	C661.201599,220.755264 661.359558,220.438675 661.794800,220.082764
	C661.963928,220.450287 661.855896,220.857132 661.395691,221.167923
z"/>
<path fill="#EFDACE" opacity="1.000000" stroke="none"
	d="
M268.003296,603.276489
	C268.302612,603.146301 268.660858,603.286316 269.006470,603.740967
	C268.683289,603.885986 268.372772,603.716309 268.003296,603.276489
z"/>
<path fill="#EFDACE" opacity="1.000000" stroke="none"
	d="
M267.002380,602.277100
	C267.302124,602.146606 267.659912,602.286926 268.005737,602.741455
	C267.682678,602.886414 267.371582,602.717102 267.002380,602.277100
z"/>
<path fill="#EFDACE" opacity="1.000000" stroke="none"
	d="
M266.001831,601.277588
	C266.302002,601.146790 266.659729,601.287048 267.005524,601.741516
	C266.682190,601.886719 266.370758,601.717712 266.001831,601.277588
z"/>
<path fill="#EFDACE" opacity="1.000000" stroke="none"
	d="
M265.002075,600.279846
	C265.303436,600.146606 265.662811,600.283813 266.007568,600.738403
	C265.682007,600.887207 265.371063,600.718750 265.002075,600.279846
z"/>
<path fill="#EFD7C9" opacity="1.000000" stroke="none"
	d="
M276.335083,600.411072
	C276.131927,600.111694 276.251434,599.657288 276.720459,599.117004
	C276.932556,599.439453 276.795135,599.847778 276.335083,600.411072
z"/>
<path fill="#EFD7C9" opacity="1.000000" stroke="none"
	d="
M277.387787,599.133423
	C277.186646,598.731323 277.331329,598.392700 277.774170,598.052246
	C277.959442,598.432617 277.846497,598.814819 277.387787,599.133423
z"/>
<path fill="#EFD8CB" opacity="1.000000" stroke="none"
	d="
M292.718933,680.000122
	C292.852203,680.303833 292.713654,680.662476 292.260132,681.005859
	C292.112488,680.678772 292.279846,680.366943 292.718933,680.000122
z"/>
<path fill="#E2C6C2" opacity="1.000000" stroke="none"
	d="
M666.383423,216.157425
	C666.302673,215.754074 666.568970,215.436417 667.171631,215.092712
	C667.248718,215.458817 666.989563,215.850983 666.383423,216.157425
z"/>
<path fill="#E2C6C2" opacity="1.000000" stroke="none"
	d="
M665.395508,217.168503
	C665.201477,216.755219 665.359619,216.438461 665.794800,216.082764
	C665.963806,216.450882 665.855774,216.857956 665.395508,217.168503
z"/>
<path fill="#E2C6C2" opacity="1.000000" stroke="none"
	d="
M664.395569,218.168365
	C664.201782,217.755951 664.360291,217.439957 664.795349,217.083557
	C664.963928,217.450378 664.855896,217.857574 664.395569,218.168365
z"/>
<path fill="#E2C6C2" opacity="1.000000" stroke="none"
	d="
M663.395569,219.168289
	C663.201782,218.755951 663.360291,218.439941 663.795410,218.083527
	C663.963928,218.450317 663.855896,218.857468 663.395569,219.168289
z"/>
<path fill="#E2C6C2" opacity="1.000000" stroke="none"
	d="
M662.395752,220.168030
	C662.201721,219.755737 662.359985,219.439606 662.795105,219.083313
	C662.963989,219.450165 662.855957,219.857178 662.395752,220.168030
z"/>
<path fill="#EFD8CB" opacity="1.000000" stroke="none"
	d="
M286.669739,685.954041
	C286.838776,686.315063 286.716797,686.688721 286.268097,687.011475
	C286.087189,686.629272 286.232971,686.297974 286.669739,685.954041
z"/>
<path fill="#EFD8CB" opacity="1.000000" stroke="none"
	d="
M287.670837,684.954224
	C287.839447,685.315247 287.716919,685.688660 287.267883,686.011414
	C287.087524,685.629395 287.233643,685.298035 287.670837,684.954224
z"/>
<path fill="#EFD8CB" opacity="1.000000" stroke="none"
	d="
M288.693542,683.974243
	C288.851593,684.316772 288.723328,684.689819 288.268616,685.012329
	C288.097168,684.642822 288.252228,684.323792 288.693542,683.974243
z"/>
<path fill="#EFD8CB" opacity="1.000000" stroke="none"
	d="
M289.720703,682.999695
	C289.851288,683.302429 289.711426,683.659790 289.257385,683.999756
	C289.112244,683.673096 289.281250,683.363647 289.720703,682.999695
z"/>
<path fill="#EFD8CB" opacity="1.000000" stroke="none"
	d="
M290.719391,682.000610
	C290.852264,682.303650 290.713623,682.662170 290.260071,683.005737
	C290.112732,682.679260 290.280334,682.367676 290.719391,682.000610
z"/>
<path fill="#EFD8CB" opacity="1.000000" stroke="none"
	d="
M291.719177,681.000366
	C291.852203,681.303772 291.713654,681.662476 291.260193,682.005920
	C291.112701,681.679016 291.280151,681.367310 291.719177,681.000366
z"/>
<path fill="#EFD8CB" opacity="1.000000" stroke="none"
	d="
M309.617188,663.837585
	C309.807953,664.244385 309.645508,664.563171 309.204285,664.926270
	C309.038330,664.563599 309.151123,664.156616 309.617188,663.837585
z"/>
<path fill="#EFD8CB" opacity="1.000000" stroke="none"
	d="
M293.718811,678.999878
	C293.852051,679.303650 293.713440,679.662109 293.259949,680.005615
	C293.112366,679.678589 293.279633,679.366638 293.718811,678.999878
z"/>
<path fill="#EFD8CB" opacity="1.000000" stroke="none"
	d="
M294.718750,677.999878
	C294.852051,678.303528 294.713379,678.661926 294.259918,679.005493
	C294.112335,678.678589 294.279572,678.366577 294.718750,677.999878
z"/>
<path fill="#EFD8CB" opacity="1.000000" stroke="none"
	d="
M295.718811,677.000000
	C295.852051,677.303528 295.713440,677.661926 295.259979,678.005493
	C295.112396,677.678650 295.279663,677.366760 295.718811,677.000000
z"/>
<path fill="#EFD8CB" opacity="1.000000" stroke="none"
	d="
M296.718964,676.000183
	C296.852112,676.303589 296.713562,676.662048 296.260071,677.005554
	C296.112518,676.678833 296.279877,676.367004 296.718964,676.000183
z"/>
<path fill="#EFD8CB" opacity="1.000000" stroke="none"
	d="
M297.719086,675.000366
	C297.852142,675.303650 297.713623,675.662231 297.260071,676.005737
	C297.112579,675.678894 297.280060,675.367249 297.719086,675.000366
z"/>
<path fill="#EFD8CB" opacity="1.000000" stroke="none"
	d="
M298.719208,674.000488
	C298.852173,674.303711 298.713654,674.662292 298.260101,675.005737
	C298.112640,674.679077 298.280182,674.367493 298.719208,674.000488
z"/>
<path fill="#EFD8CB" opacity="1.000000" stroke="none"
	d="
M299.719269,673.000610
	C299.852142,673.303711 299.713623,673.662354 299.260101,674.005859
	C299.112671,673.679138 299.280273,673.367676 299.719269,673.000610
z"/>
<path fill="#EFD8CB" opacity="1.000000" stroke="none"
	d="
M300.713928,672.002502
	C300.853241,672.308350 300.723053,672.671143 300.269073,673.011719
	C300.111664,672.679504 300.278076,672.369446 300.713928,672.002502
z"/>
<path fill="#EFD8CB" opacity="1.000000" stroke="none"
	d="
M305.611298,667.835815
	C305.807190,668.243042 305.643494,668.560669 305.201660,668.922485
	C305.032928,668.559875 305.142334,668.153015 305.611298,667.835815
z"/>
<path fill="#EFD8CB" opacity="1.000000" stroke="none"
	d="
M306.617279,666.836609
	C306.807556,667.243164 306.644165,667.560913 306.203064,667.924805
	C306.038086,667.563232 306.150848,667.155518 306.617279,666.836609
z"/>
<path fill="#EFD7C9" opacity="1.000000" stroke="none"
	d="
M281.388733,595.160767
	C281.196655,594.755249 281.356964,594.436279 281.795837,594.073853
	C281.963318,594.436035 281.852203,594.841675 281.388733,595.160767
z"/>
<path fill="#EFD8CB" opacity="1.000000" stroke="none"
	d="
M308.617249,664.837280
	C308.807800,665.243835 308.644867,665.562134 308.203674,665.925659
	C308.038208,665.563599 308.151001,665.156372 308.617249,664.837280
z"/>
<path fill="#E2C6C2" opacity="1.000000" stroke="none"
	d="
M659.412354,223.170959
	C659.201050,222.732483 659.340210,222.396271 659.774780,222.058319
	C659.967712,222.462112 659.865295,222.867661 659.412354,223.170959
z"/>
<path fill="#EFDACE" opacity="1.000000" stroke="none"
	d="
M241.841003,576.386719
	C242.244720,576.194275 242.563919,576.354126 242.927734,576.794678
	C242.567078,576.963257 242.161789,576.851135 241.841003,576.386719
z"/>
<path fill="#EFD7C9" opacity="1.000000" stroke="none"
	d="
M301.280884,575.999634
	C301.148376,575.697266 301.287628,575.339966 301.740723,574.995911
	C301.887268,575.320984 301.719971,575.632812 301.280884,575.999634
z"/>
<path fill="#EFD7C9" opacity="1.000000" stroke="none"
	d="
M302.280884,574.999634
	C302.148376,574.697266 302.287628,574.339966 302.740723,573.995911
	C302.887238,574.320984 302.719940,574.632874 302.280884,574.999634
z"/>
<path fill="#EFD7C9" opacity="1.000000" stroke="none"
	d="
M303.280884,573.999634
	C303.148407,573.697388 303.287720,573.340149 303.740784,572.996033
	C303.887268,573.321045 303.719940,573.632874 303.280884,573.999634
z"/>
<path fill="#EFD7C9" opacity="1.000000" stroke="none"
	d="
M304.280823,572.999634
	C304.148468,572.697510 304.287811,572.340332 304.740906,571.996216
	C304.887268,572.320984 304.719910,572.632812 304.280823,572.999634
z"/>
<path fill="#EFD7C9" opacity="1.000000" stroke="none"
	d="
M305.280853,571.999634
	C305.148590,571.697693 305.288025,571.340759 305.741089,570.996460
	C305.887329,571.320984 305.719940,571.632751 305.280853,571.999634
z"/>
<path fill="#EFD7C9" opacity="1.000000" stroke="none"
	d="
M306.280823,570.999634
	C306.148621,570.697815 306.288116,570.340820 306.741211,569.996582
	C306.887390,570.320984 306.719971,570.632812 306.280823,570.999634
z"/>
<path fill="#EFD7C9" opacity="1.000000" stroke="none"
	d="
M307.280884,569.999756
	C307.148682,569.697876 307.288208,569.340942 307.741272,568.996643
	C307.887390,569.321045 307.720001,569.632874 307.280884,569.999756
z"/>
<path fill="#EFD7C9" opacity="1.000000" stroke="none"
	d="
M308.283508,569.002930
	C308.150330,568.699707 308.291809,568.344543 308.745667,568.007996
	C308.891418,568.334778 308.724792,568.642883 308.283508,569.002930
z"/>
<path fill="#EFD7C9" opacity="1.000000" stroke="none"
	d="
M309.321503,568.046265
	C309.155365,567.686401 309.281464,567.314514 309.732910,566.990356
	C309.910095,567.370117 309.761932,567.702209 309.321503,568.046265
z"/>
<path fill="#EFD7C9" opacity="1.000000" stroke="none"
	d="
M310.328857,567.045044
	C310.161224,566.686401 310.284454,566.314453 310.732971,565.990479
	C310.912109,566.369507 310.765930,566.700562 310.328857,567.045044
z"/>
<path fill="#EFD7C9" opacity="1.000000" stroke="none"
	d="
M311.329346,566.045227
	C311.161377,565.686218 311.284393,565.314209 311.732819,564.990356
	C311.912262,565.369751 311.766266,565.700928 311.329346,566.045227
z"/>
<path fill="#EFD7C9" opacity="1.000000" stroke="none"
	d="
M300.280823,576.999634
	C300.148438,576.697449 300.287781,576.340271 300.740875,575.996094
	C300.887268,576.320984 300.719910,576.632812 300.280823,576.999634
z"/>
<path fill="#EFD7C9" opacity="1.000000" stroke="none"
	d="
M312.329651,565.043335
	C312.165955,564.702209 312.293945,564.346130 312.741333,564.010010
	C312.914307,564.362732 312.767822,564.695496 312.329651,565.043335
z"/>
<path fill="#EFD7C9" opacity="1.000000" stroke="none"
	d="
M313.321716,564.043457
	C313.166779,563.710022 313.304016,563.359314 313.751343,563.017822
	C313.912231,563.359985 313.763092,563.693115 313.321716,564.043457
z"/>
<path fill="#EFD7C9" opacity="1.000000" stroke="none"
	d="
M314.319214,563.043701
	C314.166260,562.710693 314.305634,562.359985 314.753174,562.018188
	C314.911407,562.360107 314.761475,562.693054 314.319214,563.043701
z"/>
<path fill="#E2C6C2" opacity="1.000000" stroke="none"
	d="
M658.410645,224.172165
	C658.200623,223.733261 658.339722,223.397675 658.773865,223.061920
	C658.965820,223.466324 658.862854,223.870911 658.410645,224.172165
z"/>
<path fill="#E2C6C2" opacity="1.000000" stroke="none"
	d="
M657.410339,225.171936
	C657.200562,224.733444 657.339905,224.398041 657.773987,224.062057
	C657.965698,224.466003 657.862610,224.870529 657.410339,225.171936
z"/>
<path fill="#E2C6C2" opacity="1.000000" stroke="none"
	d="
M656.393738,226.125671
	C656.192810,225.731110 656.336121,225.396667 656.774231,225.061676
	C656.958740,225.436005 656.848328,225.810913 656.393738,226.125671
z"/>
<path fill="#E2C6C2" opacity="1.000000" stroke="none"
	d="
M655.368652,227.102325
	C655.188660,226.728210 655.331360,226.392654 655.769348,226.053711
	C655.940186,226.413849 655.815796,226.777374 655.368652,227.102325
z"/>
<path fill="#E2C6C2" opacity="1.000000" stroke="none"
	d="
M649.364685,233.098785
	C649.188477,232.726425 649.329773,232.389511 649.767334,232.049683
	C649.936401,232.409256 649.809326,232.771729 649.364685,233.098785
z"/>
<path fill="#E2C6C2" opacity="1.000000" stroke="none"
	d="
M650.364380,232.098572
	C650.188416,231.726746 650.330017,231.390060 650.767578,231.049957
	C650.936279,231.408905 650.809082,231.771301 650.364380,232.098572
z"/>
<path fill="#E2C6C2" opacity="1.000000" stroke="none"
	d="
M651.364197,231.098450
	C651.188354,230.726929 651.330078,230.390411 651.767700,230.050125
	C651.936279,230.408722 651.809021,230.771088 651.364197,231.098450
z"/>
<path fill="#E2C6C2" opacity="1.000000" stroke="none"
	d="
M652.364136,230.098511
	C652.188354,229.727097 652.330261,229.390732 652.767822,229.050293
	C652.936279,229.408676 652.809021,229.771118 652.364136,230.098511
z"/>
<path fill="#E2C6C2" opacity="1.000000" stroke="none"
	d="
M653.364075,229.098663
	C653.188293,228.727249 653.330322,228.391052 653.767944,228.050507
	C653.936279,228.408737 653.809082,228.771301 653.364075,229.098663
z"/>
<path fill="#EFD7C9" opacity="1.000000" stroke="none"
	d="
M290.383423,586.162598
	C290.192566,585.755310 290.354462,585.436279 290.795349,585.073853
	C290.961609,585.437256 290.848907,585.844055 290.383423,586.162598
z"/>
<path fill="#EFD7C9" opacity="1.000000" stroke="none"
	d="
M279.400696,597.168640
	C279.192413,596.732971 279.334106,596.393555 279.774109,596.052490
	C279.965179,596.455505 279.857941,596.860229 279.400696,597.168640
z"/>
<path fill="#EFD7C9" opacity="1.000000" stroke="none"
	d="
M280.403381,596.165649
	C280.195648,595.740417 280.340454,595.408691 280.779846,595.058228
	C280.968262,595.446045 280.862091,595.852600 280.403381,596.165649
z"/>
<path fill="#E2C6C2" opacity="1.000000" stroke="none"
	d="
M654.364136,228.099030
	C654.188416,227.727371 654.330505,227.391281 654.768066,227.050659
	C654.936340,227.408951 654.809204,227.771759 654.364136,228.099030
z"/>
<path fill="#EFD7C9" opacity="1.000000" stroke="none"
	d="
M282.383484,594.162659
	C282.192566,593.755371 282.354584,593.436462 282.795471,593.073975
	C282.961731,593.437317 282.849091,593.844177 282.383484,594.162659
z"/>
<path fill="#EFD7C9" opacity="1.000000" stroke="none"
	d="
M283.383545,593.162720
	C283.192627,592.755554 283.354736,592.436768 283.795593,592.074219
	C283.961731,592.437256 283.849152,592.844177 283.383545,593.162720
z"/>
<path fill="#EFD7C9" opacity="1.000000" stroke="none"
	d="
M284.383545,592.162842
	C284.192719,591.755920 284.355103,591.437439 284.795898,591.074585
	C284.961823,591.437195 284.849243,591.844299 284.383545,592.162842
z"/>
<path fill="#EFD7C9" opacity="1.000000" stroke="none"
	d="
M285.383423,591.163025
	C285.192719,590.756042 285.355255,590.437744 285.796082,590.074768
	C285.961792,590.437317 285.849213,590.844482 285.383423,591.163025
z"/>
<path fill="#E2C6C2" opacity="1.000000" stroke="none"
	d="
M660.405273,222.163055
	C660.206970,221.752670 660.359314,221.435715 660.791992,221.081207
	C660.966797,221.447922 660.861389,221.852188 660.405273,222.163055
z"/>
<path fill="#EFD7C9" opacity="1.000000" stroke="none"
	d="
M286.383423,590.163208
	C286.192719,589.755981 286.355225,589.437561 286.796051,589.074707
	C286.961792,589.437500 286.849213,589.844727 286.383423,590.163208
z"/>
<path fill="#EFD7C9" opacity="1.000000" stroke="none"
	d="
M287.383484,589.163208
	C287.192627,588.755615 287.354889,588.436951 287.795776,588.074341
	C287.961792,588.437683 287.849213,588.844849 287.383484,589.163208
z"/>
<path fill="#EFD7C9" opacity="1.000000" stroke="none"
	d="
M288.383545,588.163086
	C288.192627,587.755432 288.354614,587.436462 288.795471,587.074036
	C288.961700,587.437622 288.849060,587.844727 288.383545,588.163086
z"/>
<path fill="#EFD7C9" opacity="1.000000" stroke="none"
	d="
M289.383514,587.162842
	C289.192566,586.755310 289.354462,586.436279 289.795349,586.073914
	C289.961700,586.437500 289.849030,586.844360 289.383514,587.162842
z"/>
<path fill="#EFD7C9" opacity="1.000000" stroke="none"
	d="
M278.400482,598.168579
	C278.192261,597.733032 278.334076,597.393738 278.774139,597.052551
	C278.965088,597.455383 278.857819,597.860107 278.400482,598.168579
z"/>
<path fill="#EFD7C9" opacity="1.000000" stroke="none"
	d="
M291.383301,585.162476
	C291.192566,584.755371 291.354523,584.436401 291.795410,584.073975
	C291.961578,584.437195 291.848816,584.843872 291.383301,585.162476
z"/>
<path fill="#EFDACE" opacity="1.000000" stroke="none"
	d="
M249.838745,584.380005
	C250.242279,584.191284 250.559891,584.355896 250.925507,584.797974
	C250.566620,584.961365 250.159714,584.847290 249.838745,584.380005
z"/>
<path fill="#EFDACE" opacity="1.000000" stroke="none"
	d="
M248.838928,583.379883
	C249.242355,583.191284 249.560043,583.355835 249.925598,583.797913
	C249.566681,583.961304 249.159927,583.847229 248.838928,583.379883
z"/>
<path fill="#EFDACE" opacity="1.000000" stroke="none"
	d="
M247.839020,582.379639
	C248.242416,582.191101 248.560135,582.355713 248.925644,582.797791
	C248.566742,582.961121 248.160049,582.846924 247.839020,582.379639
z"/>
<path fill="#EFDACE" opacity="1.000000" stroke="none"
	d="
M246.839020,581.379333
	C247.242340,581.190979 247.559921,581.355774 247.925537,581.797913
	C247.566803,581.961060 247.160049,581.846741 246.839020,581.379333
z"/>
<path fill="#EFDACE" opacity="1.000000" stroke="none"
	d="
M245.839294,580.378967
	C246.241959,580.191040 246.559128,580.356140 246.925125,580.798279
	C246.567245,580.960815 246.160538,580.846375 245.839294,580.378967
z"/>
<path fill="#EFD7C9" opacity="1.000000" stroke="none"
	d="
M297.283051,579.998657
	C297.148407,579.696289 297.284485,579.337830 297.737579,578.994385
	C297.887634,579.320435 297.720703,579.631531 297.283051,579.998657
z"/>
<path fill="#EFDACE" opacity="1.000000" stroke="none"
	d="
M244.839386,579.379456
	C245.241913,579.191345 245.559097,579.356323 245.925232,579.798279
	C245.567459,579.960999 245.160751,579.846741 244.839386,579.379456
z"/>
<path fill="#EFD7C9" opacity="1.000000" stroke="none"
	d="
M298.280579,578.999512
	C298.148499,578.697815 298.288116,578.340942 298.741211,577.996582
	C298.887207,578.320801 298.719727,578.632629 298.280579,578.999512
z"/>
<path fill="#EFDACE" opacity="1.000000" stroke="none"
	d="
M243.838745,578.380371
	C244.242813,578.191223 244.560928,578.355347 244.926270,578.797363
	C244.566589,578.961426 244.159683,578.847473 243.838745,578.380371
z"/>
<path fill="#EFD7C9" opacity="1.000000" stroke="none"
	d="
M299.280701,577.999573
	C299.148499,577.697632 299.287964,577.340576 299.741028,576.996338
	C299.887207,577.320862 299.719788,577.632629 299.280701,577.999573
z"/>
<path fill="#EFDACE" opacity="1.000000" stroke="none"
	d="
M242.838593,577.380615
	C243.243103,577.191223 243.561508,577.355042 243.926407,577.797119
	C243.566086,577.961426 243.159286,577.847595 242.838593,577.380615
z"/>
<path fill="#98352D" opacity="1.000000" stroke="none"
	d="
M691.556152,788.929565
	C687.074829,788.327515 681.947327,788.903564 682.080139,782.569824
	C682.115540,780.882446 683.082581,778.041992 684.130981,777.781738
	C686.653992,777.155457 690.005310,776.838989 692.066040,778.039429
	C695.771606,780.198059 695.372864,785.768250 691.556152,788.929565
z"/>
<path fill="#99372E" opacity="1.000000" stroke="none"
	d="
M711.899658,794.224121
	C712.135437,798.556702 709.683533,801.120056 706.381042,800.610535
	C704.158386,800.267639 701.582642,797.333862 700.717346,794.986816
	C700.233704,793.674927 702.521484,790.105469 704.260803,789.469910
	C707.767395,788.188660 710.457031,790.390991 711.899658,794.224121
z"/>
<path fill="#9A392E" opacity="1.000000" stroke="none"
	d="
M701.520874,775.380859
	C703.745911,775.335815 705.754517,775.604736 707.763184,775.873657
	C707.181946,777.994141 706.821594,780.232361 705.812561,782.124634
	C705.634399,782.458740 702.032471,781.837524 701.305298,780.773438
	C700.516602,779.619385 701.240295,777.431763 701.520874,775.380859
z"/>
<path fill="#FDD291" opacity="1.000000" stroke="none"
	d="
M706.873230,583.895691
	C710.295471,578.035461 713.587646,572.091980 717.246094,566.383118
	C718.007568,565.195007 720.124756,564.875732 722.437073,563.760681
	C717.025696,571.304688 712.463806,577.664368 707.480957,584.038635
	C707.059875,584.053223 706.873230,583.895691 706.873230,583.895691
z"/>
<path fill="#FDD291" opacity="1.000000" stroke="none"
	d="
M707.154541,584.130371
	C706.652039,585.758911 706.054932,587.310303 705.457764,588.861633
	C705.017700,588.675293 704.577637,588.489014 704.137634,588.302673
	C704.867126,586.956726 705.596619,585.610779 706.599670,584.080261
	C706.873230,583.895691 707.059875,584.053223 707.154541,584.130371
z"/>
<path fill="#FDD291" opacity="1.000000" stroke="none"
	d="
M702.042114,593.646362
	C702.381226,592.362488 702.720459,591.408264 703.059753,590.454041
	C703.406311,590.572754 703.752869,590.691467 704.099426,590.810242
	C703.583252,592.215088 703.067078,593.619995 702.550964,595.024902
	C702.450806,594.987488 702.281799,594.971680 702.262207,594.908936
	C702.166931,594.604858 702.111755,594.288147 702.042114,593.646362
z"/>
</svg>
